<svg id="Group_1222" data-name="Group 1222" xmlns="http://www.w3.org/2000/svg" xmlns:xlink="http://www.w3.org/1999/xlink" width="217.648" height="125.571" viewBox="0 0 217.648 125.571">
  <defs>
    <clipPath id="clip-path">
      <rect id="Rectangle_5" data-name="Rectangle 5" width="217.648" height="125.571" fill="none"/>
    </clipPath>
  </defs>
  <g id="Group_5" data-name="Group 5" clip-path="url(#clip-path)">
    <path id="Path_1" data-name="Path 1" d="M66.081,114.61c-.476-.019-.805-.03-1-.03a4.088,4.088,0,0,0-2.838.815,3.129,3.129,0,0,0-1.029,1.456c-.029.155-.112.223-.243.223a.238.238,0,0,1-.17-.088,23.778,23.778,0,0,1,.355-2.9c.286-.019.47-.019.548-.019.476,0,1.106.03,1.9.078.848.048,2.158.068,3.914.068,1.805,0,2.969-.02,3.522-.058.495-.049,1.174-.069,2.027-.069a9.58,9.58,0,0,1,.146,1.358c.039.534.077.912.116,1.126v.155c0,.145-.058.214-.184.214a.237.237,0,0,1-.194-.078,5.19,5.19,0,0,1-.349-.5,4.045,4.045,0,0,0-.98-1.115,2.613,2.613,0,0,0-1.126-.486,23.152,23.152,0,0,0-2.532-.145c-.078.912-.116,1.96-.116,3.134a48.954,48.954,0,0,0,.252,6.849c.165.7.766,1.048,1.785,1.048.243,0,.369.049.369.155s-.117.174-.359.174H64.325c-.146,0-.218-.058-.218-.165s.146-.174.432-.174a1.628,1.628,0,0,0,1.154-.407,1.6,1.6,0,0,0,.5-1.087c.049-.466.068-1.785.068-3.978,0-1.873-.068-3.726-.184-5.55" transform="translate(-2.845 -5.338)" fill="#fff"/>
    <path id="Path_2" data-name="Path 2" d="M85.614,114.222a25.55,25.55,0,0,1,.524,2.842.123.123,0,0,1-.1.068.184.184,0,0,1-.136-.068,7.4,7.4,0,0,0-1.192-1.523,3.742,3.742,0,0,0-1.154-.757,6.242,6.242,0,0,0-1.98-.214,10.844,10.844,0,0,0-2.1.155.535.535,0,0,0-.069.33c0,.039-.01.116-.019.223-.058.485-.1,1.795-.1,3.929,0,.088.01.214.02.378.465.02.776.03.95.03a2.991,2.991,0,0,0,1.649-.35,2.764,2.764,0,0,0,.893-1.464c.048-.127.107-.185.184-.185.107,0,.165.078.165.262l-.03.359a14.826,14.826,0,0,0-.077,1.484c0,.815.019,1.562.049,2.222,0,.2-.058.3-.165.3-.088,0-.136-.068-.165-.214a2.412,2.412,0,0,0-.8-1.542,4.912,4.912,0,0,0-2.649-.466c-.02.437-.02,1.155-.02,2.134a13.55,13.55,0,0,0,.126,2.435,1.358,1.358,0,0,0,.661.815,3.645,3.645,0,0,0,1.746.3q3.536,0,4.55-2.416c.088-.214.174-.311.262-.311s.146.069.146.2a.7.7,0,0,1-.049.232c-.03.117-.127.543-.262,1.281-.03.165-.145.631-.339,1.426l-3.8-.019c-.543,0-1.339-.02-2.4-.068s-1.988-.069-2.794-.069a7.148,7.148,0,0,1-1.272-.049.133.133,0,0,1-.057-.106c0-.117.1-.175.3-.175a1.409,1.409,0,0,0,1.319-.533,6.336,6.336,0,0,0,.32-2.6l-.01-1.864.029-1.726c0-.349-.029-1.019-.068-1.989a14.81,14.81,0,0,0-.107-1.668.779.779,0,0,0-.281-.417,2.733,2.733,0,0,0-1.008-.407c-.166-.049-.243-.107-.243-.2s.107-.165.32-.165l1.843.107c.66.03,2.26.039,4.812.039,1.679,0,2.542.01,2.571.01" transform="translate(-3.548 -5.338)" fill="#fff"/>
    <path id="Path_3" data-name="Path 3" d="M91.786,119.764a10.034,10.034,0,0,0,.437,2.93,4.473,4.473,0,0,0,1.349,2.2,3.2,3.2,0,0,0,2.115.776,3.291,3.291,0,0,0,2.852-1.66,7.229,7.229,0,0,0,1.076-4.045,7.067,7.067,0,0,0-1.076-3.92,3.282,3.282,0,0,0-2.882-1.668,3.2,3.2,0,0,0-2.823,1.659,6.836,6.836,0,0,0-1.048,3.725m4.9,6.248a9.952,9.952,0,0,1-1.4.126,5.221,5.221,0,0,1-2.629-.738,5.545,5.545,0,0,1-2.106-2.1,6.081,6.081,0,0,1-.795-3.075,6.264,6.264,0,0,1,1.765-4.4,5.724,5.724,0,0,1,4.347-1.892,5.546,5.546,0,0,1,2.959.805,5.787,5.787,0,0,1,2.067,2.2,6.1,6.1,0,0,1,.747,2.881,6.3,6.3,0,0,1-.524,2.445,6.762,6.762,0,0,1-1.406,2.134,9.136,9.136,0,0,1-2,1.514,19.272,19.272,0,0,1-2.668,1.222c-.757.292-1.3.524-1.62.67.253-.01.446-.03.582-.03a3.124,3.124,0,0,1,1.174.214,12.2,12.2,0,0,1,1.649.922,4.929,4.929,0,0,0,2.241.9,1.687,1.687,0,0,0,.96-.252,4.176,4.176,0,0,0,.912-.912c.107-.116.194-.184.272-.184.116,0,.165.058.165.174,0,.223-.32.66-.97,1.31A3.306,3.306,0,0,1,98,130.9a4.05,4.05,0,0,1-1.533-.339,14.66,14.66,0,0,1-2.368-1.485,2.718,2.718,0,0,0-1.436-.64.889.889,0,0,0-.785.339,2.247,2.247,0,0,0-.311,1.067,1.536,1.536,0,0,1-.194.719.6.6,0,0,1-.515.2.615.615,0,0,1-.437-.174.6.6,0,0,1-.2-.456,1.911,1.911,0,0,1,.484-1.077A4.183,4.183,0,0,1,92,128a21.683,21.683,0,0,1,2.581-1.126c1.086-.418,1.794-.708,2.1-.864" transform="translate(-4.2 -5.331)" fill="#fff"/>
    <path id="Path_4" data-name="Path 4" d="M104.468,114.118h4.54c.262,0,.388.058.388.165s-.1.174-.291.184a1.618,1.618,0,0,0-.95.359,1.924,1.924,0,0,0-.457,1.018,17.4,17.4,0,0,0-.174,3.144A32.308,32.308,0,0,0,107.7,123a2.641,2.641,0,0,0,1.049,1.775,3.954,3.954,0,0,0,2.406.65,4.1,4.1,0,0,0,2.435-.6,2.857,2.857,0,0,0,1.076-1.8,31.533,31.533,0,0,0,.253-5.19,5.6,5.6,0,0,0-.427-2.7,1.408,1.408,0,0,0-1.261-.64c-.223,0-.33-.058-.33-.185s.146-.184.437-.184h3.629c.165,0,.242.068.242.184,0,.078-.068.136-.194.155a1.6,1.6,0,0,0-1.008.437,2.077,2.077,0,0,0-.427,1.212,24.306,24.306,0,0,0-.1,2.572,31.693,31.693,0,0,1-.165,3.618,4.589,4.589,0,0,1-.679,2.221,3.621,3.621,0,0,1-1.582,1.174,6.6,6.6,0,0,1-2.6.446,6.532,6.532,0,0,1-2.678-.495,2.9,2.9,0,0,1-1.514-1.338,6.234,6.234,0,0,1-.388-2.484l.038-2.513a16.064,16.064,0,0,0-.29-4.084,1.179,1.179,0,0,0-1.223-.766c-.214,0-.311-.058-.311-.155,0-.116.126-.184.378-.184" transform="translate(-4.871 -5.34)" fill="#fff"/>
    <path id="Path_5" data-name="Path 5" d="M120.468,114.026l1.649.03,2.533-.03q.465,0,.465.174c0,.1-.087.155-.252.174q-1.005.132-1.252.728a19.847,19.847,0,0,0-.253,4.424c0,.931.03,1.988.077,3.153a16.583,16.583,0,0,0,.155,2.1,1.1,1.1,0,0,0,.35.563,1.991,1.991,0,0,0,.941.31c.146.02.233.069.233.175s-.077.154-.214.154l-2.251-.019-1.921.03c-.2,0-.311-.058-.311-.184s.088-.185.253-.185c.562-.01.892-.194.989-.562a21.8,21.8,0,0,0,.145-3.473c0-1.883-.019-3.414-.058-4.579a5.416,5.416,0,0,0-.291-2.125,1.213,1.213,0,0,0-.922-.495c-.174-.03-.252-.1-.252-.214,0-.1.058-.155.184-.155" transform="translate(-5.629 -5.336)" fill="#fff"/>
    <path id="Path_6" data-name="Path 6" d="M138.008,126.017c-.291.01-.465.019-.5.019-.223,0-.631-.01-1.212-.029s-1.815-.039-3.657-.039h-2.31c-.077,0-.388.019-.922.049s-.854.049-.98.049c-.446,0-.679-.058-.679-.185,0-.1.087-.145.272-.154a2,2,0,0,0,1.222-.369,1.671,1.671,0,0,0,.466-.931,22.259,22.259,0,0,0,.135-3.26l.01-3.24a11.1,11.1,0,0,0-.145-2.2,1.486,1.486,0,0,0-.582-.96,1.817,1.817,0,0,0-.989-.378c-.194-.02-.291-.078-.291-.194s.087-.165.261-.165h.234c.96.068,2.086.1,3.375.1l1.592-.029c.165,0,.252.058.252.185,0,.107-.087.154-.271.154a2,2,0,0,0-1.068.262,1.253,1.253,0,0,0-.572.582,4.073,4.073,0,0,0-.136,1.29l-.078,4.288.02,2.387a6.481,6.481,0,0,0,.1,1.456,1.24,1.24,0,0,0,.4.6,1.646,1.646,0,0,0,1.087.273c.039,0,.572-.02,1.619-.058a3.763,3.763,0,0,0,2.232-1.223,6.16,6.16,0,0,0,1.309-1.863c.059-.155.146-.233.243-.233s.155.068.155.223-.088.766-.262,1.8-.272,1.64-.32,1.795" transform="translate(-5.978 -5.336)" fill="#fff"/>
    <path id="Path_7" data-name="Path 7" d="M145.782,115.842a50.649,50.649,0,0,0-1.969,5.006c.631-.029,1.068-.049,1.349-.049l2.541.049c-.222-.63-.533-1.465-.941-2.5-.495-1.242-.815-2.076-.98-2.5m.359-1.979h.427q1,2.08,2.794,7.1a36.756,36.756,0,0,0,1.561,3.949,1.652,1.652,0,0,0,1.378.8c.2.02.3.088.3.2,0,.088-.048.126-.154.126l-.127-.01c-.553-.049-1.261-.077-2.115-.077-1.319,0-2.163.029-2.541.068-.184,0-.281-.058-.281-.165,0-.077.068-.126.213-.146a2.611,2.611,0,0,0,1.068-.262.676.676,0,0,0,.292-.6,8.8,8.8,0,0,0-.554-1.941l-.534-1.562c-.319,0-1.726.02-4.209.058a13.247,13.247,0,0,0-.951,3.163.876.876,0,0,0,.465.825,2.377,2.377,0,0,0,.931.3c.214.019.33.077.33.193,0,.049-.038.1-.107.136-.969-.039-1.552-.068-1.745-.068-1.019,0-1.7.019-2.047.038-.2,0-.291-.058-.291-.165s.077-.154.252-.184a2.047,2.047,0,0,0,1.592-1.407q.552-1.281,1.717-4.6c.718-2.008,1.494-3.929,2.338-5.782" transform="translate(-6.563 -5.329)" fill="#fff"/>
    <path id="Path_8" data-name="Path 8" d="M36.2,15.477l-7.849,2.134V15.976a3.147,3.147,0,0,0,2.129-3.221V10.02a5.31,5.31,0,0,0-1.4-4.124,5.649,5.649,0,0,0-3.92-1.13H11.215V45.853a5.265,5.265,0,0,0,1.192,3.629,4.848,4.848,0,0,0,3.731,1.329h9.017a5.315,5.315,0,0,0,3.987-1.4,4.937,4.937,0,0,0,1.232-3.56V42.025l5.821-1.9v6.355a5.6,5.6,0,0,1-2.1,4.162,6.471,6.471,0,0,1-4.424,1.824c-5.957-.034-10.449-.034-13.538-.034H8.091A7.921,7.921,0,0,1,2,50.141,8.188,8.188,0,0,1,0,44.32V11.286c0-3.1,1-5.292,3-6.558,1.659-1.062,4.094-1.6,7.286-1.6H29.677A6.709,6.709,0,0,1,34.5,4.766a5.691,5.691,0,0,1,1.7,4.362Z" transform="translate(0 -0.147)" fill="#fff"/>
    <path id="Path_9" data-name="Path 9" d="M63.157,20.639,58.7,33.847l7.811-2.062ZM57.2,52.47H41.231v-1.6a3.793,3.793,0,0,0,2.862-1.018,8.912,8.912,0,0,0,1.664-3.231l2.866-8.683-.669.165c-1.765.437-2.658,1.4-2.658,2.96l-1.134.33V37.568l5.025-1.33L58.364,8.652c.868-2.6-.068-3.886-2.891-3.886V3.132h7.82A5.612,5.612,0,0,1,66.621,4a5.486,5.486,0,0,1,1.726,2.8l2.862,9.653c1.261,4.23,4.424,14.873,9.682,31.968a3.362,3.362,0,0,0,1.194,1.863,4.228,4.228,0,0,0,2.434.562v1.63h-16.9V50.84a6.284,6.284,0,0,0,2.726-.427c.893-.5,1-1.765.369-3.861L66.621,33.285,57.8,35.569,54.008,46.813c-.533,1.63-.5,2.726.1,3.328.5.505,1.528.727,3.09.727Z" transform="translate(-1.93 -0.147)" fill="#fff"/>
    <path id="Path_10" data-name="Path 10" d="M113.114,3.131h19.229V4.766a8.381,8.381,0,0,0-3.231.592,4.035,4.035,0,0,0-2.464,2.5c-6.549,20.766-10.545,34-12.2,39.666-.6,1.96-.368,2.987,1,3.152a13.675,13.675,0,0,0,2.027.165v1.63H98.2v-1.63a6.289,6.289,0,0,0,2.862-.426c.6-.369.727-1.107.369-2.231L88.889,7.856q-.947-3.093-5.7-3.09V3.131h9.857a7.107,7.107,0,0,1,3.822,1.1,5.245,5.245,0,0,1,2.4,2.988l8.887,28.557L116.17,8.428c.4-1.373.4-2.333.039-2.833-.437-.567-1.465-.829-3.1-.829Z" transform="translate(-3.893 -0.147)" fill="#fff"/>
    <path id="Path_11" data-name="Path 11" d="M153.691,20.639l-4.463,13.209,7.819-2.062ZM147.733,52.47H131.764v-1.6a3.811,3.811,0,0,0,2.862-1.018,8.856,8.856,0,0,0,1.659-3.231l2.862-8.683-.66.165c-1.766.437-2.658,1.4-2.658,2.96l-1.135.33V37.568l5.016-1.33L148.9,8.652c.865-2.6-.057-3.886-2.89-3.886V3.132h7.819A5.56,5.56,0,0,1,157.144,4a5.439,5.439,0,0,1,1.737,2.8l2.862,9.653c1.261,4.23,4.423,14.873,9.682,31.968a3.356,3.356,0,0,0,1.193,1.863,4.207,4.207,0,0,0,2.434.562v1.63H158.144V50.84a6.333,6.333,0,0,0,2.735-.427c.893-.5,1-1.765.369-3.861l-4.1-13.267-8.809,2.285-3.793,11.244c-.534,1.63-.505,2.726.1,3.328.505.505,1.534.727,3.1.727Z" transform="translate(-6.166 -0.147)" fill="#fff"/>
    <path id="Path_12" data-name="Path 12" d="M212.811,18.077l-7.849,3.066v-1.6a3.954,3.954,0,0,0,1.669-1.635,6.463,6.463,0,0,0,.465-2.726V9.724a4.906,4.906,0,0,0-1.338-3.667,5.45,5.45,0,0,0-3.987-1.291h-4.987a8.185,8.185,0,0,0-4.424.927c-1.2.766-1.795,2.129-1.795,4.031v4.6a4.9,4.9,0,0,0,1.319,3.652l13.35,9.824,5.617,4.482c1.368,1.1,2.038,2.9,2.038,5.326V44.32c0,2.795-.805,4.822-2.407,6.122-1.629,1.363-4.249,2.027-7.916,2.027h-15.93a6.251,6.251,0,0,1-5-2.057,6.7,6.7,0,0,1-1.533-4.593v-8.28l8.2-3.026v1.629a3.45,3.45,0,0,0-2.1,3.522v6.224a4.351,4.351,0,0,0,1.737,3.914,6.892,6.892,0,0,0,4.152,1.038h4.065a8.168,8.168,0,0,0,4.414-.931c1.2-.766,1.8-2.1,1.8-4.021V41.293c0-1.756-.437-2.988-1.33-3.657L187.693,27.8l-5.617-4.463c-1.426-1.135-2.027-2.96-2.027-5.326V11.286c0-2.764.8-4.826,2.357-6.121,1.631-1.368,4.269-2.032,7.888-2.032H206.66q6.141,0,6.15,6Z" transform="translate(-8.426 -0.147)" fill="#fff"/>
    <path id="Path_13" data-name="Path 13" d="M29.277,78.716l-3.813,11.3,6.694-1.756Zm-5.093,27.262H10.514V104.6a3.237,3.237,0,0,0,2.445-.873,7.47,7.47,0,0,0,1.426-2.765l2.45-7.431-.572.135c-1.509.378-2.275,1.193-2.275,2.542l-.97.281V93.21l4.3-1.135,7.858-23.614c.743-2.222-.053-3.337-2.478-3.337V63.736h6.693a4.791,4.791,0,0,1,2.853.738,4.694,4.694,0,0,1,1.475,2.4l2.454,8.256c1.076,3.619,3.783,12.729,8.285,27.368a2.877,2.877,0,0,0,1.029,1.6,3.619,3.619,0,0,0,2.076.485v1.4H33.1v-1.4a5.332,5.332,0,0,0,2.333-.369c.771-.427.859-1.514.316-3.309l-3.5-11.36L24.7,91.5l-3.249,9.624c-.457,1.4-.427,2.338.087,2.853a3.9,3.9,0,0,0,2.649.621Z" transform="translate(-0.492 -2.983)" fill="#fff"/>
    <path id="Path_14" data-name="Path 14" d="M64.463,94.578V91.269l21.965-5.976v1.455a4.226,4.226,0,0,0-2.087.942,3.5,3.5,0,0,0-.649,2.328v12.709a3.244,3.244,0,0,1-.825,2.28,3.367,3.367,0,0,1-2.562.97H57.4a5.22,5.22,0,0,1-3.841-1.4,5.037,5.037,0,0,1-1.426-3.736V69.857h.029a5.8,5.8,0,0,1,2.28-4.578c1.4-1.039,3.532-1.543,6.462-1.543H78.423a5.317,5.317,0,0,1,3.871,1.426,5.041,5.041,0,0,1,1.426,3.7v7.665L77,78.347V76.979a3.331,3.331,0,0,0,1.484-1,3.432,3.432,0,0,0,.4-1.882V69.373a3.95,3.95,0,0,0-1.173-2.988,5.246,5.246,0,0,0-3.445-1.261c-.135-.03-4.754-.03-13.809,0v35.217a3.836,3.836,0,0,0,1.478,3.415,6.784,6.784,0,0,0,3.648.825h4.58a6.768,6.768,0,0,0,3.647-.825,3.84,3.84,0,0,0,1.485-3.415c.029-6.646.029-10.206,0-10.663-.234.088-2.707.738-7.4,2.027a5.477,5.477,0,0,0-1.679.68,2.342,2.342,0,0,0-.776,1.911Z" transform="translate(-2.44 -2.983)" fill="#fff"/>
    <path id="Path_15" data-name="Path 15" d="M108.674,78.716l-3.822,11.3,6.694-1.756Zm-5.1,27.262H89.9V104.6a3.261,3.261,0,0,0,2.454-.873,7.621,7.621,0,0,0,1.416-2.765l2.455-7.431-.572.135c-1.514.378-2.28,1.193-2.28,2.542l-.97.281V93.21l4.308-1.135,7.858-23.614c.738-2.222-.058-3.337-2.484-3.337V63.736h6.694a4.8,4.8,0,0,1,2.853.738,4.7,4.7,0,0,1,1.484,2.4l2.445,8.256c1.087,3.619,3.783,12.729,8.285,27.368a2.877,2.877,0,0,0,1.029,1.6,3.617,3.617,0,0,0,2.076.485v1.4H112.487v-1.4a5.384,5.384,0,0,0,2.338-.369c.766-.427.854-1.514.311-3.309l-3.5-11.36-7.548,1.96-3.24,9.624c-.466,1.4-.427,2.338.077,2.853a3.9,3.9,0,0,0,2.649.621Z" transform="translate(-4.207 -2.983)" fill="#fff"/>
    <path id="Path_16" data-name="Path 16" d="M151.423,63.736h16.464v1.387a7,7,0,0,0-2.765.524,3.376,3.376,0,0,0-2.1,2.134c-5.618,17.773-9.033,29.106-10.459,33.946-.515,1.679-.311,2.561.853,2.707a12.407,12.407,0,0,0,1.737.145v1.4H138.665v-1.4a5.34,5.34,0,0,0,2.445-.368c.514-.32.621-.942.31-1.911L130.68,67.781c-.533-1.765-2.153-2.658-4.86-2.658V63.736h8.43a6.1,6.1,0,0,1,3.27.931,4.531,4.531,0,0,1,2.056,2.571l7.6,24.439,6.869-23.411a3.03,3.03,0,0,0,.03-2.425c-.369-.485-1.253-.719-2.649-.719Z" transform="translate(-5.888 -2.983)" fill="#fff"/>
    <path id="Path_17" data-name="Path 17" d="M195.867,95.578l7.286-1.93-1.562,12.331H172.283v-1.4a4.11,4.11,0,0,0,2.56-.573c.544-.484.805-1.455.805-2.9V90.358a8.041,8.041,0,0,0-1.6.543,2.526,2.526,0,0,0-.708,2l-.97.281v-3.3L175.649,89V68.616c0-1.455-.261-2.434-.805-2.91a4.041,4.041,0,0,0-2.56-.582V63.737h30.249V74.215l-6.752,1.823v-1.4a2.4,2.4,0,0,0,1.707-2.5V68.432a3.125,3.125,0,0,0-1.029-2.649,4.553,4.553,0,0,0-2.706-.66h-9.8V86.836l7.945-2.144a5.583,5.583,0,0,0,1.689-.679,2.254,2.254,0,0,0,.795-1.911l.97-.282V87.2l-.97.282a1.768,1.768,0,0,0-.592-1.5,1.473,1.473,0,0,0-1.261-.088l-8.576,2.338v12.108a3.876,3.876,0,0,0,1.513,3.415,6.788,6.788,0,0,0,3.649.825h4.87a4.917,4.917,0,0,0,2.3-.368,2.825,2.825,0,0,0,1.145-2.115l.543-3.561c.165-1.106.058-1.736-.311-1.911a3.165,3.165,0,0,0-1.795.175Z" transform="translate(-8.062 -2.983)" fill="#fff"/>
    <path id="Path_18" data-name="Path 18" d="M222.308,4.516h.519c.6,0,1.091-.2,1.091-.688,0-.438-.316-.718-1.009-.718a2.557,2.557,0,0,0-.6.058Zm-.03,2.673h-1.1V2.475A9.56,9.56,0,0,1,223,2.334a2.967,2.967,0,0,1,1.639.339,1.3,1.3,0,0,1,.46,1.038,1.218,1.218,0,0,1-.975,1.1v.053a1.385,1.385,0,0,1,.859,1.15,3.769,3.769,0,0,0,.344,1.178h-1.178a4.137,4.137,0,0,1-.374-1.15c-.083-.519-.374-.746-.975-.746h-.52ZM219.373,4.72a3.653,3.653,0,0,0,3.682,3.764,3.61,3.61,0,0,0,3.595-3.735,3.641,3.641,0,1,0-7.277-.03m8.484,0A4.848,4.848,0,1,1,223.025,0a4.741,4.741,0,0,1,4.832,4.72" transform="translate(-10.21)" fill="#fff"/>
  </g>
</svg>
