<svg xmlns="http://www.w3.org/2000/svg" xmlns:xlink="http://www.w3.org/1999/xlink" width="584" height="858" viewBox="0 0 584 858">
  <defs>
    <filter id="Rectangle_59" x="0" y="0" width="584" height="858" filterUnits="userSpaceOnUse">
      <feOffset dy="3" input="SourceAlpha"/>
      <feGaussianBlur stdDeviation="20" result="blur"/>
      <feFlood/>
      <feComposite operator="in" in2="blur"/>
      <feComposite in="SourceGraphic"/>
    </filter>
    <filter id="Ellipse_22" x="493" y="34" width="65" height="65" filterUnits="userSpaceOnUse">
      <feOffset dy="3" input="SourceAlpha"/>
      <feGaussianBlur stdDeviation="3" result="blur-2"/>
      <feFlood flood-opacity="0.161"/>
      <feComposite operator="in" in2="blur-2"/>
      <feComposite in="SourceGraphic"/>
    </filter>
    <clipPath id="clip-path">
      <rect id="Rectangle_627" data-name="Rectangle 627" width="294.411" height="295.595" fill="none"/>
    </clipPath>
  </defs>
  <g id="Group_1247" data-name="Group 1247" transform="translate(-428 21)">
    <g id="Group_1238" data-name="Group 1238" transform="translate(251.146 -26.266)">
      <g id="Group_1237" data-name="Group 1237" transform="translate(237.058 62.266)">
        <g transform="matrix(1, 0, 0, 1, -60.2, -57)" filter="url(#Rectangle_59)">
          <rect id="Rectangle_59-2" data-name="Rectangle 59" width="464" height="738" rx="15" transform="translate(60 57)" fill="#fff"/>
        </g>
      </g>
      <g transform="matrix(1, 0, 0, 1, 176.85, 5.27)" filter="url(#Ellipse_22)">
        <circle id="Ellipse_22-2" data-name="Ellipse 22" cx="23.5" cy="23.5" r="23.5" transform="translate(502 40)" fill="#577e8c"/>
      </g>
      <text id="X" transform="translate(711.854 78.266)" fill="#fff" font-size="28" font-family="ProximaNova-Bold, Proxima Nova" font-weight="700"><tspan x="-18.704" y="0">X</tspan></text>
    </g>
    <g id="Group_1245" data-name="Group 1245" transform="translate(573.024 257)" opacity="0.04">
      <g id="Group_1212" data-name="Group 1212" clip-path="url(#clip-path)">
        <path id="Path_738" data-name="Path 738" d="M94.056,10.745l-6.519,9.65a135.564,135.564,0,0,1,59.769,112.421,135.194,135.194,0,0,1-20.892,72.349l9.838,6.223a146.805,146.805,0,0,0,22.7-78.572A147.206,147.206,0,0,0,94.056,10.745" transform="translate(135.462 16.628)"/>
        <path id="Path_739" data-name="Path 739" d="M11.642,130.77A136.225,136.225,0,0,1,67.017,21.447l-6.894-9.38A147.29,147.29,0,0,0,23.073,209.943l9.813-6.267A135.091,135.091,0,0,1,11.642,130.77" transform="translate(0 18.674)"/>
        <path id="Path_740" data-name="Path 740" d="M27.037,14.568a.588.588,0,0,1,.183-.925c1.228-.792,1.842-1.177,3.085-1.934a1.653,1.653,0,0,1,1.113-.334,1.356,1.356,0,0,1,.706.683c2.369,3.966,3.556,5.961,5.923,9.93a1.143,1.143,0,0,1-.5,1.75c.1.171.16.252.262.423,2.03-1.241,3.049-1.829,5.12-2.963-.1-.176-.143-.267-.239-.443a1.141,1.141,0,0,1-1.768-.431c-2.262-4.03-3.4-6.048-5.666-10.075a1.341,1.341,0,0,1-.229-.955,1.632,1.632,0,0,1,.843-.81c1.271-.7,1.916-1.037,3.2-1.7a.58.58,0,0,1,.876.311c.122-.061.176-.094.3-.155-.211-.418-.316-.619-.527-1.037a117.188,117.188,0,0,0-13.6,7.872c.257.39.387.583.645.976.11-.074.163-.11.273-.181" transform="translate(40.42 9.132)"/>
        <path id="Path_741" data-name="Path 741" d="M36.561,7.059c.27.071.512.336.708.825,1.08,2.693,1.62,4.043,2.7,6.741-.446.311-.667.469-1.108.785.181.436.267.652.446,1.088.125-.1.189-.143.316-.239a.844.844,0,0,1,0-.772,3.341,3.341,0,0,1,.522-.418c.568,1.422.856,2.127,1.424,3.546a1.328,1.328,0,0,1,.092,1.078,1.72,1.72,0,0,1-.846.571c.074.186.122.275.2.461a103.2,103.2,0,0,1,10.605-3.831c-.293-1.748-.431-2.621-.7-4.374-1.027.6-1.536.9-2.545,1.521.053.166.082.245.135.41a1.491,1.491,0,0,1,.65-.275c.153.018.275.219.331.611.076.507.107.762.183,1.269a1.066,1.066,0,0,1-.186.864,2.169,2.169,0,0,1-.8.4c-.711.242-1.06.359-1.771.611a2.77,2.77,0,0,1-1.432.2,1.337,1.337,0,0,1-.971-.94c-.6-1.618-.9-2.428-1.5-4.043,1.185-.8,1.781-1.185,2.993-1.949a.686.686,0,0,1,.5-.13.606.606,0,0,1,.392.423c.135-.087.2-.125.336-.209-.239-.729-.364-1.1-.6-1.824-.138.087-.2.13-.341.217a.771.771,0,0,1-.092.754,2.314,2.314,0,0,1-.576.456c-1.129.708-1.684,1.065-2.787,1.8-1.072-2.894-1.607-4.341-2.68-7.232,1.577-.586,2.372-.866,3.961-1.4A2.164,2.164,0,0,1,45.291,3.9,1,1,0,0,1,46,4.647c.163.5.245.762.408,1.261A.867.867,0,0,1,46,6.975c.064.189.089.283.153.471.986-.6,1.493-.892,2.5-1.47-.438-1.424-.66-2.137-1.1-3.561A115.776,115.776,0,0,0,35.277,6.827c.076.181.115.28.191.464a1.983,1.983,0,0,1,1.093-.232" transform="translate(54.591 3.737)"/>
        <path id="Path_742" data-name="Path 742" d="M46.811,14.747a2.245,2.245,0,0,0,1.146,1.661,4.2,4.2,0,0,0,2.576.087c1.485-.288,2.229-.415,3.722-.66A7.589,7.589,0,0,0,56.094,17.4a3.676,3.676,0,0,0,2.3.464,3.164,3.164,0,0,0,2.1-1.072,2.925,2.925,0,0,0,.678-1.643c-.252.025-.38.041-.632.069l0,.02a1.478,1.478,0,0,1-.553.9A1.758,1.758,0,0,1,59,16.51a3.2,3.2,0,0,1-2.163-1.078,8.249,8.249,0,0,0,1.888-.846,2.257,2.257,0,0,0,.535-1.941c-.474-4.007-.7-6.012-1.174-10.019A2.138,2.138,0,0,0,57.057.879,4.5,4.5,0,0,0,54.305.616L54.293.6c-2.662.385-3.992.606-6.639,1.118a4.7,4.7,0,0,0-2.6,1.169,2.119,2.119,0,0,0-.42,2c.871,3.941,1.3,5.915,2.173,9.856m5.013,1.022a1.887,1.887,0,0,1-1.011.02c-.066-.12.183-.578.489-.838a1.834,1.834,0,0,1,.851-.438,1.418,1.418,0,0,1,1,.186,2.781,2.781,0,0,1,.7.716c-.815.135-1.22.206-2.035.354M53.042,1.3c1.131-.076,1.755.339,1.883,1.241.616,4.371.922,6.56,1.541,10.936a1.742,1.742,0,0,1-.25,1.151c-.219.005-2.041-1.378-3.386-1.149-1.391.237-2.418,1.992-2.611,2.051a2.279,2.279,0,0,1-.489-.912C48.757,9.69,48.283,7.224,47.313,2.3c2.285-.451,3.431-.647,5.729-1" transform="translate(68.957 0.826)"/>
        <path id="Path_743" data-name="Path 743" d="M55.376.759a1.236,1.236,0,0,1,.369,1.027c.094,3.712.135,5.569.229,9.286a4.221,4.221,0,0,0,.981,2.8,3.96,3.96,0,0,0,3.067,1.167c1.717.013,2.57.033,4.282.1a4.034,4.034,0,0,0,3.075-.965,3.774,3.774,0,0,0,.78-1.136,4.462,4.462,0,0,0,.364-1.531c.278-3.765.42-5.65.693-9.41a1.275,1.275,0,0,1,.431-.994A1.889,1.889,0,0,1,70.74.978c.015-.191.031-.288.046-.481C68.226.283,66.942.2,64.376.107c-.01.2-.01.3-.018.489a1.934,1.934,0,0,1,1.08.257,1.237,1.237,0,0,1,.29,1.042c-.217,4.514-.326,6.774-.548,11.293a1.276,1.276,0,0,1-.645,1.159,2.16,2.16,0,0,1-.594.2,3.582,3.582,0,0,1-.785.048c-.937-.031-1.409-.041-2.346-.053a1.655,1.655,0,0,1-1.21-.42,1.508,1.508,0,0,1-.39-1.1c.005-4.517.01-6.779.013-11.288,0-.6.143-.958.413-1.1a2.34,2.34,0,0,1,.994-.138c0-.2,0-.3,0-.5C58.087-.013,56.815,0,54.268.092c.005.2.01.3.018.5a1.951,1.951,0,0,1,1.09.171" transform="translate(83.979 0)"/>
        <path id="Path_744" data-name="Path 744" d="M69.922,16.153a1.672,1.672,0,0,1-.937-.4,1.35,1.35,0,0,1-.094-1.078c.927-4.535,1.386-6.807,2.3-11.336a1.227,1.227,0,0,1,.538-.94,1.931,1.931,0,0,1,1.118.02l.1-.481c-2.525-.538-3.791-.782-6.325-1.2-.031.194-.043.3-.074.494a1.932,1.932,0,0,1,1.037.382,1.254,1.254,0,0,1,.16,1.075c-.8,4.55-1.2,6.83-2.013,11.387a1.35,1.35,0,0,1-.481.968,1.61,1.61,0,0,1-1,.038c-.036.2-.054.3-.087.494,2.262.374,3.4.591,5.648,1.07.043-.2.061-.293.1-.492" transform="translate(99.302 1.139)"/>
        <path id="Path_745" data-name="Path 745" d="M80.573,19.948a1.053,1.053,0,0,0,.624-.634l1.266-3.164a1.106,1.106,0,0,1,.548-.67,1.872,1.872,0,0,1,.9-.005c.079-.189.11-.283.186-.471-2.448-.273-3.658-.374-6.081-.52-.155.438-.247.657-.4,1.1.155.01.242.013.4.025a.7.7,0,0,1,.769-.52c.107.008.655.053,1.643.143-.382,1-.578,1.5-.958,2.5a1.355,1.355,0,0,1-.925.92,2.034,2.034,0,0,1-1.187-.1l-.871-.316a2.764,2.764,0,0,1-1.241-.744,1.312,1.312,0,0,1-.15-1.332c1.452-4.277,2.165-6.425,3.615-10.7.173-.509.385-.8.642-.871a2.128,2.128,0,0,1,1.131.168c.064-.186.094-.278.158-.464-2.456-.861-3.686-1.258-6.17-2-.059.189-.074.28-.13.469a1.913,1.913,0,0,1,.973.517,1.259,1.259,0,0,1,.036,1.093c-1.368,4.412-2.063,6.621-3.437,11.038a1.368,1.368,0,0,1-.609.9,1.635,1.635,0,0,1-.991-.094c-.056.194-.087.29-.143.484,3.788,1.131,5.673,1.773,9.38,3.212a1.373,1.373,0,0,0,1.022.038" transform="translate(108.59 3.55)"/>
        <path id="Path_746" data-name="Path 746" d="M83,19.794c-.459-.257-.723-.492-.792-.7-.087-.255.061-.558.446-.9,1.111-.958,1.674-1.429,2.81-2.369,1.207.357,1.816.545,3.024.935-.316,1.684-.481,2.522-.83,4.2-.148.66-.408.991-.726.953a2.5,2.5,0,0,1-.874-.362c-.1.173-.143.257-.247.431,1.954,1.162,2.925,1.763,4.838,3.019.112-.168.163-.25.278-.42a1.585,1.585,0,0,1-.6-.594,1.065,1.065,0,0,1-.038-.693c1.195-5.276,1.99-8.763,2.267-10.088.415-2,.583-3.032.588-3.06a1.73,1.73,0,0,0-.122-1.075,2.439,2.439,0,0,0-.958-.856c-1.016-.586-1.521-.874-2.547-1.439-.1.173-.148.26-.245.433.925.507,1.047,1.032.374,1.562-2.835,2.267-4.208,3.424-6.909,5.8-.7-.181-1.05-.273-1.742-.443l-.535,1.037.395.087c.211-.415.616-.55,1.228-.374.089.023.138.033.229.056-.841.754-1.253,1.131-2.081,1.893a2.707,2.707,0,0,1-.963.622,1.349,1.349,0,0,1-.983-.155c-.087.178-.138.265-.224.443,1.9.953,2.848,1.45,4.715,2.489.094-.173.135-.255.229-.428m6.359-6.983c-.255,1.416-.39,2.12-.667,3.531-1.083-.344-1.62-.512-2.7-.828,1.335-1.1,2-1.633,3.37-2.7" transform="translate(120.789 10.478)"/>
        <path id="Path_747" data-name="Path 747" d="M28.17,98.96a2.939,2.939,0,0,0-.843-1.646c-1.931-2.125-2.879-3.22-4.723-5.469a6.381,6.381,0,0,0-2.1-1.824,2.057,2.057,0,0,0-2.262.324c-3.182,2.468-4.777,3.7-7.958,6.165a2.13,2.13,0,0,0-.892,1.745,3.941,3.941,0,0,0,1.037,2.42c.843,1.039,1.269,1.554,2.13,2.57.83.981,2.038,2.4,3.686,4.208a3.057,3.057,0,0,0,1.63.955,1.561,1.561,0,0,0,1.5-.247c.56-.53.846-.8,1.406-1.332-.8-.517-1.2-.777-2-1.312-.346.316-.517.479-.861.795a1.289,1.289,0,0,1-1.139.349,2.559,2.559,0,0,1-1.409-.922c-.986-1.108-1.467-1.669-2.43-2.81a2.406,2.406,0,0,1-.675-1.444,1.311,1.311,0,0,1,.53-1.07c3.862-3.189,5.8-4.792,9.655-7.984,1.332,1.62,2.013,2.412,3.391,3.966a2.6,2.6,0,0,1,.723,1.322,1.476,1.476,0,0,1-.583,1.233c-.247.227-.367.336-.614.566a.98.98,0,0,1-1.264.056c-.148.132-.222.2-.369.329,1,.716,1.5,1.067,2.5,1.755.56-.532.846-.8,1.406-1.327a1.605,1.605,0,0,0,.532-1.371" transform="translate(14.526 138.99)"/>
        <path id="Path_748" data-name="Path 748" d="M32.325,99.6c-.874-.7-1.309-1.057-2.173-1.778l-.313.382c.78.652.8,1.179.043,1.579-3.161,1.75-4.766,2.593-8.035,4.214-.7-.39-1.042-.581-1.735-.981-.308.349-.466.52-.774.866.16.089.245.135.405.222.311-.352.772-.352,1.368.01.092.051.135.082.229.135-1.024.5-1.539.754-2.573,1.248a2.458,2.458,0,0,1-1.149.306,1.786,1.786,0,0,1-1.057-.532c-.13.145-.194.219-.326.364,1.9,1.72,2.871,2.555,4.83,4.18.122-.15.183-.229.308-.38a2.184,2.184,0,0,1-.8-.963c-.059-.288.138-.548.619-.787,1.34-.665,2.007-1.006,3.33-1.7,1.218.652,1.834.973,3.06,1.59-.509,1.658-.757,2.489-1.236,4.16-.183.657-.459.937-.83.838a3.02,3.02,0,0,1-.925-.553c-.12.155-.181.234-.3.39,2.109,1.656,3.179,2.461,5.345,4.01.115-.161.171-.242.285-.4a1.99,1.99,0,0,1-.675-.706,1.044,1.044,0,0,1-.046-.729c1.315-5.352,2.474-8.723,2.889-10.022.624-1.951.96-2.935.968-2.963a2.016,2.016,0,0,0,.033-1.052,2.194,2.194,0,0,0-.759-.95m-4.489,7.581c-1.093-.538-1.635-.815-2.723-1.381,1.549-.813,2.321-1.223,3.844-2.063-.459,1.373-.685,2.063-1.121,3.444" transform="translate(25.123 151.375)"/>
        <path id="Path_749" data-name="Path 749" d="M38.323,107.8c.512.265.792.507.843.731.043.189-.082.441-.4.754-2.527,2.453-3.821,3.658-6.46,6.025.481-3.694.762-5.528,1.391-9.171a1.809,1.809,0,0,0-.28-1.223,2.858,2.858,0,0,0-1-.96c-1.19-.7-1.781-1.065-2.955-1.8-.1.168-.16.26-.265.425.943.591,1.355,1.192,1.228,1.855-1.019,5.128-1.465,7.732-2.188,12.964-.046.372-.2.54-.451.522a3.068,3.068,0,0,1-1.024-.441c-.1.171-.15.26-.247.431,2.6,1.488,3.908,2.2,6.562,3.546.089-.176.138-.265.227-.441a5.913,5.913,0,0,1-.678-.4c-.441-.3-.367-.634.1-1.039,1.33-1.141,4.68-4.1,9.416-8.807a1.346,1.346,0,0,1,1.108-.321,3.346,3.346,0,0,1,1.1.313c.084-.178.127-.267.209-.448-2.428-1.118-3.628-1.712-6.01-2.955-.092.176-.14.262-.232.438" transform="translate(41.036 158.088)"/>
        <path id="Path_750" data-name="Path 750" d="M49.2,123.207c-.492-5.546-.611-9-.655-10.34-.071-2.028-.089-3.075-.092-3.1a1.584,1.584,0,0,0-.311-.986,2.084,2.084,0,0,0-1.009-.6c-1.027-.334-1.534-.5-2.553-.853-.066.186-.1.278-.16.466.92.321,1.108.8.566,1.447-2.305,2.767-3.5,4.127-5.936,6.815-.752-.1-1.123-.15-1.88-.262-.168.433-.252.655-.42,1.088.173.02.26.033.436.054.166-.438.578-.609,1.241-.494.1.015.148.023.247.036-.762.843-1.146,1.264-1.921,2.1a2.525,2.525,0,0,1-.945.706,1.669,1.669,0,0,1-1.131-.1c-.071.183-.1.268-.176.446,2.28.887,3.429,1.309,5.734,2.1.066-.183.092-.273.155-.459a1.939,1.939,0,0,1-1.037-.609c-.153-.245-.046-.555.311-.955,1-1.106,1.488-1.656,2.463-2.777,1.322.161,1.982.232,3.3.362.079,1.72.13,2.586.242,4.31.051.675-.117,1.037-.481,1.078a2.9,2.9,0,0,1-1.032-.188c-.061.188-.084.288-.143.476,2.458.772,3.7,1.131,6.18,1.8.051-.191.074-.285.125-.476a1.85,1.85,0,0,1-.838-.405,1,1,0,0,1-.283-.665m-6.585-6.68c1.141-1.312,1.7-1.972,2.81-3.3.031,1.437.051,2.15.1,3.592-1.162-.1-1.742-.161-2.914-.29" transform="translate(53.39 166.078)"/>
        <path id="Path_751" data-name="Path 751" d="M56.621,110.466c-2.221-.27-3.332-.428-5.543-.79a4.742,4.742,0,0,0-2.767.148,2.2,2.2,0,0,0-1.139,1.681c-.155.805-.234,1.2-.39,2.007a1.9,1.9,0,0,0,.405,1.74c.69.678,1.044,1.016,1.75,1.684,1.692,1.511,2.563,2.252,4.343,3.712a1.173,1.173,0,0,1,.331,1.162c-.076.555-.11.833-.186,1.383a1.257,1.257,0,0,1-.838,1.118,3.682,3.682,0,0,1-1.7.051c-.611-.092-.909-.132-1.516-.229a3.246,3.246,0,0,1-1.5-.571,1.252,1.252,0,0,1-.438-1.287c.132-.746.2-1.116.331-1.862a1.065,1.065,0,0,1,.953-.93c.033-.2.043-.293.076-.492-1.241.166-1.862.239-3.116.377-.191.994-.288,1.488-.479,2.479a1.822,1.822,0,0,0,.3,1.483,2.644,2.644,0,0,0,1.758.95c2.382.41,3.574.594,5.966.909a5.424,5.424,0,0,0,3.054-.247,2.083,2.083,0,0,0,1.1-1.76c.087-.815.127-1.218.217-2.033a1.865,1.865,0,0,0-.55-1.7c-.751-.632-1.123-.953-1.86-1.595-1.758-1.429-2.614-2.158-4.285-3.64a1.352,1.352,0,0,1-.275-1.167c.089-.55.138-.83.229-1.383a1.289,1.289,0,0,1,.805-1.1,3.137,3.137,0,0,1,1.544-.056c.675.1,1.014.143,1.692.234a2.057,2.057,0,0,1,1.307.563,1.413,1.413,0,0,1,.321,1.157c-.079.662-.127,1-.206,1.658a1.688,1.688,0,0,1-.262.808,1.288,1.288,0,0,1-.639.413c-.025.2-.041.293-.066.489,1.154-.232,1.725-.349,2.866-.6.12-1.085.176-1.635.293-2.721.132-1.2-.5-1.877-1.888-2.046" transform="translate(69.887 169.533)"/>
        <path id="Path_752" data-name="Path 752" d="M76.2,123.012a1.046,1.046,0,0,1-.545-.476c-2.84-4.789-4.44-7.851-5.064-9.046-.94-1.8-1.427-2.733-1.439-2.756a1.642,1.642,0,0,0-.7-.754,2.066,2.066,0,0,0-1.167-.117c-1.062.14-1.595.209-2.657.329.023.2.043.293.064.489.973-.107,1.34.245,1.134,1.062-.856,3.485-1.332,5.23-2.341,8.71-.721.234-1.08.346-1.8.571.038.464.069.7.107,1.159.166-.059.245-.087.408-.143-.038-.466.252-.795.887-.976.1-.031.155-.043.255-.074-.321,1.09-.489,1.628-.823,2.716a2.494,2.494,0,0,1-.535,1.047,1.624,1.624,0,0,1-1.06.4c.013.194.028.288.043.481,2.41-.186,3.617-.3,6.02-.581-.023-.194-.043-.288-.066-.481a1.93,1.93,0,0,1-1.169-.1c-.239-.158-.3-.481-.155-1,.41-1.427.619-2.142,1.006-3.572,1.248-.425,1.867-.639,3.1-1.088.818,1.518,1.243,2.277,2.094,3.783q.485.887.028,1.179a2.865,2.865,0,0,1-1,.278c.025.194.051.29.076.484,2.537-.364,3.806-.571,6.331-1.039-.036-.2-.066-.285-.1-.481a1.846,1.846,0,0,1-.922-.005m-9.331-3.661c.451-1.679.67-2.517,1.088-4.2.65,1.284.976,1.923,1.646,3.2-1.09.41-1.633.609-2.733,1" transform="translate(94.267 169.964)"/>
        <path id="Path_753" data-name="Path 753" d="M85.208,115.458a1.139,1.139,0,0,1-.036-.887,2.192,2.192,0,0,1,.726-.619c-.071-.189-.117-.278-.188-.466-3.2,2.107-4.833,3.108-8.2,5.016.138.451.194.68.334,1.131l.377-.227a.773.773,0,0,1,.1-.746,2.661,2.661,0,0,1,.642-.446c1.793-1.047,2.769-1.676,2.789-1.669s.474,1.353,1.223,3.587a1.28,1.28,0,0,1-.247,1.363,3.318,3.318,0,0,1-1.429.777c-.777.25-1.159.372-1.934.609a3.446,3.446,0,0,1-1.648.189,1.265,1.265,0,0,1-.971-.976c-1.409-4.807-2.114-7.222-3.523-12.022,3.5-1.029,5.253-1.653,5.309-1.666a2.664,2.664,0,0,1,1.478-.031,1.343,1.343,0,0,1,.795.843c.224.637.352.958.576,1.595a1.053,1.053,0,0,1,.051.68,1.36,1.36,0,0,1-.471.54c.061.181.092.278.153.459.978-.609,1.472-.925,2.435-1.549-.377-1.027-.568-1.536-.945-2.56a1.672,1.672,0,0,0-1-1.029,2.322,2.322,0,0,0-1.638.041c-2.662.93-4,1.358-6.692,2.148a5.128,5.128,0,0,0-2.364,1.223,2.029,2.029,0,0,0-.459,1.821h-.005c1.136,4.259,1.7,6.4,2.835,10.656a1.609,1.609,0,0,0,.945,1.123,2.669,2.669,0,0,0,1.786.023c3.923-1.106,5.872-1.725,9.726-3.093a1.727,1.727,0,0,0,.953-.708,1.013,1.013,0,0,0,.071-.894c-.624-1.694-.937-2.54-1.562-4.236" transform="translate(108.959 165.928)"/>
        <path id="Path_754" data-name="Path 754" d="M96.274,113.284a1.091,1.091,0,0,1-.68-.257c-4.377-3.332-6.972-5.739-8-6.639-1.531-1.353-2.305-2.061-2.318-2.079a1.439,1.439,0,0,0-.943-.451,2.227,2.227,0,0,0-1.162.321c-.96.515-1.442.764-2.412,1.258l.224.443c.881-.446,1.371-.255,1.457.588.4,3.577.555,5.378.8,9-.6.476-.9.721-1.513,1.19l.494,1.044.341-.273c-.2-.423-.033-.841.507-1.238.084-.064.122-.1.2-.16.074,1.139.115,1.707.173,2.846a2.488,2.488,0,0,1-.148,1.167,1.647,1.647,0,0,1-.856.749c.082.176.12.268.2.443,2.232-1.034,3.34-1.577,5.538-2.705-.092-.173-.138-.26-.224-.433a2.107,2.107,0,0,1-1.162.336c-.288-.061-.456-.349-.494-.884-.1-1.485-.166-2.221-.3-3.7,1.044-.846,1.577-1.279,2.6-2.148,1.312,1.129,1.964,1.681,3.3,2.787.53.431.678.8.451,1.09a2.772,2.772,0,0,1-.853.629c.1.173.14.26.234.433,2.3-1.258,3.434-1.921,5.686-3.286-.1-.168-.15-.25-.255-.42a2.008,2.008,0,0,1-.907.349m-10.2-.053c-.155-1.732-.232-2.6-.423-4.326,1.07.968,1.613,1.455,2.7,2.407-.9.777-1.36,1.157-2.277,1.918" transform="translate(124.978 160.714)"/>
        <path id="Path_755" data-name="Path 755" d="M105.4,111.609c-.453.3-.754.1-.93-.494-.5-1.679-1.951-5.913-4.275-12.23a1.355,1.355,0,0,1,.178-1.169,3.552,3.552,0,0,1,.744-.912c-.132-.145-.191-.219-.324-.367-2.063,1.872-3.126,2.777-5.263,4.524.125.155.186.227.313.382.459-.377.8-.548,1.032-.512.194.031.38.247.54.667,1.228,3.317,1.809,4.993,2.917,8.374-3.228-1.878-4.815-2.853-7.93-4.856a1.719,1.719,0,0,0-1.236-.217,2.952,2.952,0,0,0-1.3.553c-1.129.825-1.692,1.23-2.835,2.023.112.163.173.247.285.41.915-.634,1.648-.782,2.206-.4,4.323,2.953,6.55,4.377,11.1,7.085.326.186.413.39.29.619a3.043,3.043,0,0,1-.815.782c.117.158.186.239.3.4,2.428-1.834,3.61-2.784,5.964-4.756-.125-.15-.186-.229-.311-.38a6.567,6.567,0,0,1-.647.479" transform="translate(134.667 149.234)"/>
        <path id="Path_756" data-name="Path 756" d="M111.023,98.953c.135.11.191.166.326.273a2.085,2.085,0,0,1,.484-.69c.16-.087.359,0,.619.311.331.392.5.586.825.981a1.054,1.054,0,0,1,.242.912,3.12,3.12,0,0,1-.6.945c-.6.729-.907,1.1-1.513,1.811a3.889,3.889,0,0,1-1.358,1.134,1.256,1.256,0,0,1-1.4-.255c-1.3-1.139-1.939-1.707-3.235-2.843.79-1.409,1.172-2.122,1.926-3.554a.971.971,0,0,1,.408-.428.628.628,0,0,1,.6.127l.2-.4c-.6-.489-.9-.734-1.5-1.22-.079.16-.1.25-.178.408a.72.72,0,0,1,.285.708,3.141,3.141,0,0,1-.308.754c-.7,1.32-1.062,1.979-1.793,3.281-2.318-2.043-3.49-3.067-5.808-5.105,1.126-1.286,1.676-1.934,2.769-3.263a2.364,2.364,0,0,1,.938-.78,1.051,1.051,0,0,1,1.037.247c.405.329.606.484,1.014.815a.907.907,0,0,1,.217,1.169c.15.127.229.186.38.311.568-1.113.851-1.669,1.4-2.795-1.174-.917-1.768-1.376-2.942-2.293a117.075,117.075,0,0,1-8.575,10c.145.135.217.206.362.341a2.13,2.13,0,0,1,.915-.67c.278-.059.6.1.973.446,2.13,1.974,3.195,2.963,5.329,4.934-.313.527-.479.795-.795,1.32l.851.808c.094-.158.148-.237.242-.395a.833.833,0,0,1-.3-.736,6.381,6.381,0,0,1,.359-.66c1.123,1.042,1.681,1.557,2.8,2.6.382.354.555.678.5.978a2.458,2.458,0,0,1-.68,1.027c.143.135.217.206.362.341a129.4,129.4,0,0,0,9.209-10.73c-1.187-1.325-1.786-1.982-2.986-3.3-.629,1.266-.94,1.89-1.6,3.139" transform="translate(147.751 138.519)"/>
        <path id="Path_757" data-name="Path 757" d="M94.463,120.432a40.457,40.457,0,0,0,7.706-3.51h-.008l.008,0c-12.134,1.967-24.853-3.141-34.911-13.064a63.532,63.532,0,0,1-15.445-25.22,67.563,67.563,0,0,1-2.229-8.475c-.283-1.447-.507-2.886-.69-4.318-.145-1.149-.278-2.3-.362-3.434l0,0v0a39.628,39.628,0,0,0-4.178,9.484,39.307,39.307,0,0,0,50.112,48.54" transform="translate(66.072 96.576)"/>
        <path id="Path_758" data-name="Path 758" d="M137.758,80.815a42.646,42.646,0,0,1-16.831,15.1c-12.218,6.3-28.025,8.027-44.158,4.387a81.011,81.011,0,0,1-13.754-4.382c-1.241-.525-2.438-1.093-3.633-1.666A79.536,79.536,0,0,1,48.82,88.159c-1.042-.718-2.084-1.437-3.075-2.2v0a47.439,47.439,0,0,0,89.083,4.585,48.437,48.437,0,0,0,2.932-9.734l-.005.008,0-.008" transform="translate(70.79 125.06)"/>
        <path id="Path_759" data-name="Path 759" d="M129.7,55.725a57.794,57.794,0,0,0-6.494-9.971v0c7,21.85-2.993,47.748-24.456,66.046a94.056,94.056,0,0,1-18.393,12.243,96.911,96.911,0,0,1-10.508,4.568c-2.744,1.006-5.495,1.837-8.241,2.56-1.062.28-2.127.586-3.189.823h0A55.537,55.537,0,0,0,129.7,55.725" transform="translate(90.397 70.804)"/>
        <path id="Path_760" data-name="Path 760" d="M85.927,126.145A107.574,107.574,0,0,1,75.618,150.8l0,0v0A63.633,63.633,0,0,0,66.656,31.529a67.131,67.131,0,0,0-8.809-1.781c-1.546-.209-3.09-.38-4.631-.471h0c29.877,13.835,44.436,55.092,32.712,96.868" transform="translate(82.35 45.306)"/>
        <path id="Path_761" data-name="Path 761" d="M121.64,102.383c1.139,2.043,2.188,4.1,3.195,6.17a121.861,121.861,0,0,1,6.761,17.071c.492,1.569,1,3.139,1.419,4.708v0a72.192,72.192,0,0,0,4.4-32.17,71.351,71.351,0,0,0-8.774-28.387c-.028-.048-.061-.094-.089-.143-.932-1.664-1.936-3.261-2.978-4.82-.344-.512-.706-1.006-1.06-1.508q-1.173-1.658-2.42-3.233c-.4-.5-.8-1.006-1.213-1.5q-1.414-1.681-2.914-3.251c-.306-.321-.6-.66-.9-.976q-1.96-1.983-4.053-3.793c-.374-.326-.767-.627-1.149-.943-1.06-.881-2.137-1.735-3.24-2.55-.512-.374-1.024-.739-1.541-1.1-1.075-.749-2.165-1.46-3.274-2.148-.479-.3-.953-.6-1.439-.892-1.569-.92-3.161-1.791-4.789-2.588-.214-.1-.436-.191-.652-.293q-2.159-1.028-4.377-1.908c-.558-.222-1.123-.423-1.689-.632q-1.788-.661-3.607-1.225c-.586-.181-1.172-.364-1.763-.532q-2.117-.6-4.27-1.06c-.354-.079-.706-.176-1.062-.247-1.771-.357-3.556-.639-5.352-.861-.525-.066-1.055-.1-1.582-.158-1.312-.132-2.626-.237-3.949-.3q-.948-.042-1.9-.061c-.471-.01-.943-.046-1.414-.046-.688,0-1.378.059-2.066.079-.836.023-1.669.043-2.5.1-1.154.074-2.3.2-3.454.329-.787.089-1.577.158-2.362.275-1.264.186-2.522.438-3.78.693-.673.138-1.348.242-2.018.4q-2.652.619-5.273,1.452c-.15.048-.3.076-.453.125-1.661.538-3.3,1.159-4.94,1.821a71.155,71.155,0,0,0-8.025,3.831,72.94,72.94,0,0,0-7.9,5.138c-1.6,1.192-3.161,2.425-4.644,3.73l.005,0,0,.005c11.991-4.359,25.111-4.687,38.128-1.511,24.856,6.066,49.35,24.912,64.958,52.909" transform="translate(28.707 51.09)"/>
        <path id="Path_762" data-name="Path 762" d="M256.761,134.224a123.782,123.782,0,1,0-123.782,123.8,123.922,123.922,0,0,0,123.782-123.8M132.978,254.14a119.9,119.9,0,1,1,119.9-119.915,120.038,120.038,0,0,1-119.9,119.915" transform="translate(14.231 16.167)"/>
      </g>
    </g>
    <g id="Group_1246" data-name="Group 1246" transform="translate(524.5 118.987)">
      <g id="Group_1214" data-name="Group 1214" transform="translate(61.682 0)">
        <text id="tequila_blanco" data-name="tequila blanco" transform="translate(131 26)" fill="#010203" font-size="27" font-family="Cinzel-Bold, Cinzel" font-weight="700" letter-spacing="0.09em"><tspan x="-130.747" y="0">tequila blanco</tspan></text>
        <g id="Group_17" data-name="Group 17" transform="translate(52.518 45.589)">
          <path id="Path_25" data-name="Path 25" d="M161.795,53.418h0L81.584,52.354l80.211-1.064a1.069,1.069,0,0,1,0,2.128" transform="translate(-81.584 -51.289)" fill="#010203"/>
          <path id="Path_26" data-name="Path 26" d="M195.9,51.289h0l80.211,1.064L195.9,53.417a1.069,1.069,0,0,1,0-2.128" transform="translate(-105.875 -51.289)" fill="#010203"/>
        </g>
      </g>
      <text id="_100_AGAVE_TRIPLE_DESTILADO_AROMA_Aroma_primario:_Agave._Aroma_secundario:_Herbal._Aroma_Terciario:_Citrico._SABOR_Con_una_suavidad_alta._Primer_plano:_De_entrada_con_tendencia_a_Agave._Segundo_plano:_Más_cítrico_que_herbal._Tercer_plano:_Se_" data-name="100% AGAVE TRIPLE DESTILADO

AROMA
• Aroma primario: Agave.
• Aroma secundario: Herbal.
• Aroma Terciario: Citrico.

SABOR
Con una suavidad alta.
• Primer plano: De entrada con tendencia a Agave.
• Segundo plano: Más cítrico que herbal.
• Tercer plano: Se " transform="translate(0 71.026)" fill="#161819" font-size="18" font-family="ProximaNova-Light, Proxima Nova" font-weight="300"><tspan x="0" y="17">100% AGAVE TRIPLE DESTILADO</tspan><tspan x="0" y="45"></tspan><tspan font-family="ProximaNova-Semibold, Proxima Nova" font-weight="600"><tspan x="0" y="73">AROMA</tspan></tspan><tspan x="0" y="101">• Aroma primario: Agave.</tspan><tspan x="0" y="129">• Aroma secundario: Herbal.</tspan><tspan x="0" y="157">• Aroma Terciario: Citrico.</tspan><tspan x="0" y="185"></tspan><tspan font-family="ProximaNova-Semibold, Proxima Nova" font-weight="600"><tspan x="0" y="213">SABOR</tspan></tspan><tspan x="0" y="241">Con una suavidad alta.</tspan><tspan x="0" y="269">• </tspan><tspan y="269" letter-spacing="-0.002em">Primer plano: De entrada con tendencia a Agave</tspan><tspan y="269">.</tspan><tspan x="0" y="297">• Segundo plano: Más cítrico que herbal.</tspan><tspan x="0" y="325">• Tercer plano: Se encuentra un toque dulce entre </tspan><tspan x="0" y="353" xml:space="preserve">  el 1ro y 2do plano.</tspan><tspan x="0" y="381"></tspan><tspan font-family="ProximaNova-Semibold, Proxima Nova" font-weight="600"><tspan x="0" y="409">CUERPO</tspan></tspan><tspan x="0" y="437">• Medio con una tonalidad cristalina y destellos </tspan><tspan x="0" y="465" xml:space="preserve">  platinados.</tspan></text>
    </g>
  </g>
</svg>
