<svg xmlns="http://www.w3.org/2000/svg" xmlns:xlink="http://www.w3.org/1999/xlink" width="1440" height="334" viewBox="0 0 1440 334">
  <defs>
    <clipPath id="clip-path">
      <rect id="Rectangle_634" data-name="Rectangle 634" width="1440" height="334" transform="translate(0 4161)" fill="#fff" stroke="#707070" stroke-width="1"/>
    </clipPath>
  </defs>
  <g id="Mask_Group_5" data-name="Mask Group 5" transform="translate(0 -4161)" clip-path="url(#clip-path)">
    <g id="Group_1205" data-name="Group 1205" transform="translate(-34.926 1637.287)" opacity="0.15">
      <path id="Union_2" data-name="Union 2" d="M476.148,823.89A234.835,234.835,0,0,1,343.026,676.045a392.165,392.165,0,0,0,85.516,49.312c147.521,62.407,305.472,28.264,370.118-74.826a240.7,240.7,0,0,1-14.515,48.238C746.2,788.544,659.039,842.419,567.4,842.418A234.406,234.406,0,0,1,476.148,823.89Zm-161.665-241.7a194.77,194.77,0,0,1,18.971-164A332.88,332.88,0,0,0,349.7,498.6c41.879,126.112,149.732,205.834,249.367,189.683a198.636,198.636,0,0,1-38.166,17.4A194.686,194.686,0,0,1,314.483,582.186ZM502.876,635.28a465.326,465.326,0,0,0,108.645-39.387c167.053-85.048,255.572-252.272,212.167-387.92a285.809,285.809,0,0,1,32.158,49.4C924.61,392.891,870.823,558.612,735.433,627.51a274.446,274.446,0,0,1-232.557,7.77Zm96.366-155.316C657.3,272.965,585.206,68.551,437.256,0a324.326,324.326,0,0,1,66.56,11.164C671.249,58.238,768.953,232.207,722.04,399.893A314.325,314.325,0,0,1,548.2,602.128,533.508,533.508,0,0,0,599.243,479.963Zm-88.775-89.086C392.7,179.494,172.763,73.4,0,136.2A357.893,357.893,0,0,1,126.3,64.249C284.116,13.219,461.17,78.856,545.159,229.326c53.266,95.527,57.69,205.058,21.628,300.032A606.352,606.352,0,0,0,510.468,390.877Z" transform="matrix(0.985, -0.174, 0.174, 0.985, 675.926, 2568.522)" fill="#162124" stroke="rgba(0,0,0,0)" stroke-miterlimit="10" stroke-width="1" opacity="0.214" style="mix-blend-mode: multiply;isolation: isolate"/>
      <path id="Union_3" data-name="Union 3" d="M476.148,823.89A234.835,234.835,0,0,1,343.026,676.045a392.164,392.164,0,0,0,85.516,49.312c147.521,62.407,305.472,28.264,370.118-74.826a240.7,240.7,0,0,1-14.515,48.238C746.2,788.544,659.039,842.419,567.4,842.418A234.406,234.406,0,0,1,476.148,823.89Zm-161.665-241.7a194.77,194.77,0,0,1,18.971-164A332.88,332.88,0,0,0,349.7,498.6c41.879,126.112,149.732,205.834,249.367,189.683a198.636,198.636,0,0,1-38.166,17.4A194.686,194.686,0,0,1,314.483,582.186ZM502.876,635.28a465.326,465.326,0,0,0,108.645-39.387c167.053-85.048,255.572-252.272,212.167-387.92a285.81,285.81,0,0,1,32.158,49.4C924.61,392.891,870.823,558.612,735.433,627.51a274.446,274.446,0,0,1-232.557,7.77Zm96.366-155.316C657.3,272.965,585.206,68.551,437.256,0a324.329,324.329,0,0,1,66.56,11.164C671.249,58.238,768.953,232.207,722.04,399.893A314.325,314.325,0,0,1,548.2,602.128,533.508,533.508,0,0,0,599.242,479.963Zm-88.775-89.086C392.7,179.494,172.763,73.4,0,136.2A357.893,357.893,0,0,1,126.3,64.249C284.116,13.22,461.17,78.856,545.159,229.326c53.266,95.527,57.69,205.058,21.628,300.032A606.352,606.352,0,0,0,510.468,390.877Z" transform="translate(990.042 2844.245) rotate(164)" fill="#162124" stroke="rgba(0,0,0,0)" stroke-miterlimit="10" stroke-width="1" opacity="0.214" style="mix-blend-mode: multiply;isolation: isolate"/>
    </g>
  </g>
</svg>
