<svg id="Group_32" data-name="Group 32" xmlns="http://www.w3.org/2000/svg" xmlns:xlink="http://www.w3.org/1999/xlink" width="811.911" height="285.768" viewBox="0 0 811.911 285.768">
  <defs>
    <clipPath id="clip-path">
      <rect id="Rectangle_15" data-name="Rectangle 15" width="811.911" height="285.768" fill="none"/>
    </clipPath>
  </defs>
  <text id="Agave_Growing" data-name="Agave Growing" transform="translate(9.089 104.059)" font-size="11" font-family="ProximaNova-Light, Proxima Nova" font-weight="300"><tspan x="0" y="0">Agave Growing</tspan></text>
  <text id="Harvest" transform="translate(216.021 104.059)" font-size="11" font-family="ProximaNova-Light, Proxima Nova" font-weight="300"><tspan x="0" y="0">Harvest</tspan></text>
  <text id="Pine_Cut" data-name="Pine Cut" transform="translate(399.226 104.059)" font-size="11" font-family="ProximaNova-Light, Proxima Nova" font-weight="300"><tspan x="0" y="0">Pine Cut</tspan></text>
  <text id="Baking" transform="translate(580.737 104.059)" font-size="11" font-family="ProximaNova-Light, Proxima Nova" font-weight="300"><tspan x="0" y="0">Baking</tspan></text>
  <g id="Group_27" data-name="Group 27">
    <g id="Group_26" data-name="Group 26" clip-path="url(#clip-path)">
      <text id="Milling_Juice" data-name="Milling &amp; Juice" transform="translate(743.734 102.475)" font-size="11" font-family="ProximaNova-Light, Proxima Nova" font-weight="300"><tspan x="0" y="0">Milling &amp; Juice</tspan></text>
    </g>
  </g>
  <text id="Extraction" transform="translate(754.449 118.074)" font-size="11" font-family="ProximaNova-Light, Proxima Nova" font-weight="300"><tspan x="0" y="0">Extraction</tspan></text>
  <text id="Fermentation" transform="translate(7.879 278.42)" font-size="11" font-family="ProximaNova-Light, Proxima Nova" font-weight="300"><tspan x="0" y="0">Fermentation</tspan></text>
  <g id="Group_29" data-name="Group 29">
    <g id="Group_28" data-name="Group 28" clip-path="url(#clip-path)">
      <text id="Bottling" transform="translate(757.826 282.424)" font-size="11" font-family="ProximaNova-Light, Proxima Nova" font-weight="300"><tspan x="0" y="0">Bottling</tspan></text>
      <text id="A" transform="translate(578.955 282.424)" font-size="11" font-family="ProximaNova-Light, Proxima Nova" font-weight="300"><tspan x="0" y="0">A</tspan></text>
      <text id="vocado" transform="translate(585.863 282.424)" font-size="11" font-family="ProximaNova-Light, Proxima Nova" font-weight="300"><tspan x="0" y="0">vocado</tspan></text>
      <text id="W" transform="translate(379.976 282.424)" font-size="11" font-family="ProximaNova-Light, Proxima Nova" font-weight="300"><tspan x="0" y="0">W</tspan></text>
      <text id="ater_Mixing" data-name="ater Mixing" transform="translate(389.084 282.424)" font-size="11" font-family="ProximaNova-Light, Proxima Nova" font-weight="300"><tspan x="0" y="0">ater Mixing</tspan></text>
      <text id="Distillations" transform="translate(202.073 282.424)" font-size="11" font-family="ProximaNova-Light, Proxima Nova" font-weight="300"><tspan x="0" y="0">Distillations</tspan></text>
    </g>
  </g>
  <path id="Path_27" data-name="Path 27" d="M40.126,67.019H58.657L79.586,37.078Zm19.932,2.689H32.132L91.6,24.587Z"/>
  <path id="Path_28" data-name="Path 28" d="M31.541,69.708h6.773V67.019H32.941L12.013,37.078,44.987,62.1l1.625-2.143L0,24.587Z"/>
  <path id="Path_29" data-name="Path 29" d="M52.674,54.25,44.87,16.1,38.936,54.188l-2.657-.415L44.512.929l10.8,52.782Z"/>
  <path id="Path_30" data-name="Path 30" d="M65.78,47.169l-2.617-.622L69.784,18.7,52.576,42.518,50.4,40.943,75.532,6.158Z"/>
  <path id="Path_31" data-name="Path 31" d="M25.435,47.169,15.683,6.158,40.819,40.943l-2.18,1.575L21.431,18.7l6.621,27.843Z"/>
  <path id="Path_32" data-name="Path 32" d="M227.934,31.928h4.429l5-7.083Zm4.8.7h-6.916l14.727-11.061Z"/>
  <path id="Path_33" data-name="Path 33" d="M228.438,31.761h3.838l4.335-6.139Zm4.013.336H227.43l10.689-8.028Zm-6.129.368h6.325l7.143-10.116Zm6.5.336h-7.508l15.985-12Z"/>
  <path id="Path_34" data-name="Path 34" d="M226.805,32.633h-1.669l-7.81-11.061,11.522,8.654-.431.562-7.912-5.943,5,7.083h1.3Z"/>
  <path id="Path_35" data-name="Path 35" d="M225.223,32.465h1.414V32.1H225.42l-5.669-8.028,8.634,6.485.226-.3L218.08,22.349Zm1.75.336h-1.924l-8.477-12,12.512,9.4-.634.829-7.19-5.4,4.334,6.139h1.379Z"/>
  <path id="Path_36" data-name="Path 36" d="M230.284,28.875,228.409,19.8l-1.425,9.058-.7-.109,2.033-12.924,2.667,12.908Z"/>
  <path id="Path_37" data-name="Path 37" d="M228.387,18.862l2.028,9.815.368-.074-2.445-11.838L226.473,28.61l.372.057Zm1.767,10.211-1.722-8.333-1.308,8.31-1.035-.159,2.2-14,2.888,13.978Z"/>
  <path id="Path_38" data-name="Path 38" d="M233.539,27.164,232.846,27l1.585-6.6-4.121,5.645-.577-.412,6.219-8.52Z"/>
  <path id="Path_39" data-name="Path 39" d="M233.049,26.876l.365.086,2.178-9.067-5.623,7.7.3.217,4.518-6.19Zm.614.49-1.02-.24,1.428-5.944-3.724,5.1-.85-.608,6.815-9.336Z"/>
  <path id="Path_40" data-name="Path 40" d="M223.633,27.164,221.22,17.117l6.219,8.52-.577.412L222.741,20.4l1.585,6.6Z"/>
  <path id="Path_41" data-name="Path 41" d="M221.58,17.9l2.178,9.067.365-.086-1.742-7.25,4.519,6.19.3-.217Zm1.929,9.471L220.86,16.339l6.815,9.336-.851.608-3.723-5.1,1.428,5.944Z"/>
  <g id="Group_31" data-name="Group 31">
    <g id="Group_30" data-name="Group 30" clip-path="url(#clip-path)">
      <path id="Path_42" data-name="Path 42" d="M216.114,26.488q-1.052,5.5-2.352,10.939c-.848,3.629-1.773,7.238-2.712,10.843-.964,3.6-1.944,7.193-3,10.767q-1.556,5.37-3.364,10.671,1.05-5.5,2.35-10.939c.849-3.629,1.773-7.238,2.714-10.843.966-3.6,1.946-7.192,3-10.767q1.557-5.368,3.362-10.671"/>
      <path id="Path_43" data-name="Path 43" d="M181.172,26.488q-2.312,5.574-4.854,11.036c-1.677,3.649-3.426,7.263-5.188,10.871-1.785,3.6-3.584,7.186-5.454,10.74q-2.779,5.345-5.794,10.573,2.31-5.576,4.852-11.037c1.678-3.649,3.427-7.263,5.19-10.87,1.787-3.6,3.586-7.185,5.457-10.739q2.779-5.343,5.791-10.574"/>
      <path id="Path_44" data-name="Path 44" d="M241.145,26.488q1.806,5.3,3.362,10.671c1.056,3.575,2.036,7.169,3,10.767.941,3.6,1.865,7.214,2.714,10.843q1.3,5.436,2.35,10.939-1.808-5.3-3.364-10.671c-1.056-3.574-2.036-7.168-3-10.767-.939-3.6-1.864-7.214-2.712-10.843q-1.3-5.437-2.352-10.939"/>
      <path id="Path_45" data-name="Path 45" d="M273.061,26.488q3.01,5.23,5.791,10.574c1.871,3.554,3.671,7.143,5.457,10.739,1.763,3.607,3.512,7.221,5.19,10.87q2.543,5.461,4.852,11.037-3.014-5.229-5.793-10.573c-1.871-3.554-3.67-7.143-5.455-10.74-1.762-3.608-3.511-7.222-5.188-10.871q-2.543-5.461-4.854-11.036"/>
      <path id="Path_46" data-name="Path 46" d="M200.984,31.928h4.429l5-7.083Zm4.8.7h-6.917L213.6,21.572Z"/>
      <path id="Path_47" data-name="Path 47" d="M201.488,31.761h3.838l4.335-6.139Zm4.012.336h-5.019l10.689-8.028Zm-6.128.368H205.7l7.143-10.116Zm6.5.336h-7.506l15.984-12Z"/>
      <path id="Path_48" data-name="Path 48" d="M199.855,32.633h-1.669l-7.81-11.061L201.9,30.226l-.43.562-7.913-5.943,5,7.083h1.3Z"/>
      <path id="Path_49" data-name="Path 49" d="M198.273,32.465h1.414V32.1H198.47L192.8,24.069l8.634,6.485.226-.3L191.13,22.349Zm1.75.336H198.1l-8.478-12,12.513,9.4-.635.829-7.19-5.4,4.335,6.139h1.379Z"/>
      <path id="Path_50" data-name="Path 50" d="M203.335,28.875,201.46,19.8l-1.425,9.058-.7-.109,2.034-12.924,2.667,12.908Z"/>
      <path id="Path_51" data-name="Path 51" d="M201.437,18.862l2.028,9.815.368-.074-2.446-11.838L199.523,28.61l.371.057ZM203.2,29.073l-1.722-8.333-1.308,8.31-1.035-.159,2.2-14,2.888,13.978Z"/>
      <path id="Path_52" data-name="Path 52" d="M206.589,27.164,205.9,27l1.585-6.6-4.121,5.645-.577-.412L209,17.117Z"/>
      <path id="Path_53" data-name="Path 53" d="M206.1,26.876l.365.086,2.178-9.067-5.624,7.7.3.217,4.518-6.19Zm.614.49-1.02-.24,1.428-5.944-3.724,5.1-.85-.608,6.815-9.336Z"/>
      <path id="Path_54" data-name="Path 54" d="M196.683,27.164,194.27,17.117l6.219,8.52-.577.412L195.791,20.4l1.585,6.6Z"/>
      <path id="Path_55" data-name="Path 55" d="M194.63,17.9l2.178,9.067.365-.086-1.741-7.25,4.518,6.19.3-.217Zm1.929,9.471L193.91,16.339l6.815,9.336-.85.608-3.724-5.1,1.428,5.944Z"/>
      <path id="Path_56" data-name="Path 56" d="M255.17,31.928H259.6l5-7.083Zm4.8.7h-6.916l14.727-11.061Z"/>
      <path id="Path_57" data-name="Path 57" d="M255.674,31.761h3.838l4.335-6.139Zm4.012.336h-5.019l10.689-8.028Zm-6.128.368h6.325l7.143-10.116Zm6.5.336h-7.506l15.984-12Z"/>
      <path id="Path_58" data-name="Path 58" d="M254.041,32.633h-1.669l-7.81-11.061,11.522,8.654-.43.562-7.913-5.943,5,7.083h1.3Z"/>
      <path id="Path_59" data-name="Path 59" d="M252.459,32.465h1.414V32.1h-1.217l-5.669-8.028,8.634,6.485.226-.3-10.531-7.909Zm1.75.336h-1.924l-8.478-12,12.513,9.4-.635.829-7.19-5.4,4.335,6.139h1.379Z"/>
      <path id="Path_60" data-name="Path 60" d="M257.52,28.875,255.645,19.8l-1.425,9.058-.7-.109,2.034-12.924,2.667,12.908Z"/>
      <path id="Path_61" data-name="Path 61" d="M255.622,18.862l2.028,9.815.368-.074-2.446-11.838L253.708,28.61l.371.057Zm1.767,10.211-1.722-8.333-1.308,8.31-1.035-.159,2.2-14,2.888,13.978Z"/>
      <path id="Path_62" data-name="Path 62" d="M260.774,27.164,260.081,27l1.585-6.6-4.121,5.645-.577-.412,6.219-8.52Z"/>
      <path id="Path_63" data-name="Path 63" d="M260.285,26.876l.365.086,2.178-9.067L257.2,25.6l.3.217,4.518-6.19Zm.614.49-1.02-.24,1.428-5.944-3.724,5.1-.85-.608,6.815-9.336Z"/>
      <path id="Path_64" data-name="Path 64" d="M250.869,27.164l-2.413-10.047,6.219,8.52-.577.412L249.977,20.4l1.585,6.6Z"/>
      <path id="Path_65" data-name="Path 65" d="M248.815,17.9l2.178,9.067.365-.086-1.741-7.25,4.518,6.19.3-.217Zm1.929,9.471L248.1,16.339l6.815,9.336-.851.608-3.723-5.1,1.428,5.944Z"/>
      <path id="Path_66" data-name="Path 66" d="M228.26,58.447h5.576l6.3-8.918Zm6.043.887H225.6l18.54-13.926Z"/>
      <path id="Path_67" data-name="Path 67" d="M228.764,58.279h4.985l5.63-7.974Zm5.159.336h-6.166l13.131-9.863Zm-7.823.551h8.116l9.166-12.981Zm8.29.336h-9.3l19.8-14.87Z"/>
      <path id="Path_68" data-name="Path 68" d="M226.839,59.334h-2.1L214.9,45.408,229.41,56.3l-.542.707-9.961-7.482,6.3,8.918h1.634Z"/>
      <path id="Path_69" data-name="Path 69" d="M224.825,59.166h1.846v-.551h-1.553l-6.965-9.863,10.684,8.024.337-.439L215.659,46.185Zm2.182.336h-2.356l-10.5-14.87,15.5,11.64-.746.973-9.239-6.94,5.63,7.974h1.715Z"/>
      <path id="Path_70" data-name="Path 70" d="M231.219,54.6l-2.36-11.424-1.8,11.4-.885-.136,2.56-16.271,3.358,16.25Z"/>
      <path id="Path_71" data-name="Path 71" d="M228.836,42.241,231.349,54.4l.549-.111-3.137-15.18-2.39,15.192.553.085Zm2.252,12.56-2.207-10.683L227.2,54.774l-1.218-.187,2.731-17.351,3.578,17.321Z"/>
      <path id="Path_72" data-name="Path 72" d="M235.316,52.449l-.872-.2,1.995-8.306-5.188,7.108-.726-.52L238.354,39.8Z"/>
      <path id="Path_73" data-name="Path 73" d="M234.647,52.119l.544.128,2.8-11.669-7.234,9.91.453.324L236.8,43.16Zm.793.532-1.2-.282,1.838-7.652-4.791,6.562-1-.714.1-.138,8.326-11.4Z"/>
      <path id="Path_74" data-name="Path 74" d="M222.845,52.449,219.807,39.8l7.829,10.726-.726.52-5.188-7.108,1.995,8.306Z"/>
      <path id="Path_75" data-name="Path 75" d="M220.167,40.578l2.8,11.669.544-.128-2.152-8.959,5.586,7.652.453-.324Zm2.554,12.073-3.273-13.629,8.425,11.543-1,.714-4.791-6.562,1.838,7.652Z"/>
      <path id="Path_76" data-name="Path 76" d="M263.678,58.447h5.576l6.3-8.918Zm6.043.887h-8.707l18.54-13.926Z"/>
      <path id="Path_77" data-name="Path 77" d="M264.182,58.279h4.985l5.63-7.974Zm5.159.336h-6.166l13.131-9.863Zm-7.823.551h8.116L278.8,46.185Zm8.29.336h-9.3l19.8-14.87Z"/>
      <path id="Path_78" data-name="Path 78" d="M262.256,59.334h-2.1l-9.833-13.926,14.506,10.9-.542.707-9.961-7.482,6.3,8.918h1.634Z"/>
      <path id="Path_79" data-name="Path 79" d="M260.243,59.166h1.846v-.551h-1.553l-6.965-9.863,10.684,8.024.337-.439L251.077,46.185Zm2.182.336h-2.356l-10.5-14.87,15.5,11.64-.746.973-9.239-6.94,5.63,7.974h1.715Z"/>
      <path id="Path_80" data-name="Path 80" d="M266.637,54.6l-2.36-11.424-1.8,11.4-.885-.136,2.56-16.271,3.358,16.25Z"/>
      <path id="Path_81" data-name="Path 81" d="M264.254,42.241,266.767,54.4l.549-.111-3.137-15.18-2.39,15.192.553.085Zm2.252,12.56L264.3,44.118l-1.677,10.656-1.218-.187,2.731-17.351,3.578,17.321Z"/>
      <path id="Path_82" data-name="Path 82" d="M270.733,52.449l-.872-.2,1.995-8.306-5.188,7.108-.726-.52L273.771,39.8Z"/>
      <path id="Path_83" data-name="Path 83" d="M270.065,52.119l.544.128,2.8-11.669-7.234,9.91.453.324,5.586-7.652Zm.793.532-1.2-.282,1.838-7.652-4.791,6.562-1-.714.1-.138,8.325-11.4Z"/>
      <path id="Path_84" data-name="Path 84" d="M258.263,52.449,255.225,39.8l7.829,10.726-.726.52-5.188-7.108,1.995,8.306Z"/>
      <path id="Path_85" data-name="Path 85" d="M255.585,40.578l2.8,11.669.545-.128-2.152-8.959,5.585,7.652.453-.324Zm2.554,12.073-3.273-13.629,8.424,11.543-1,.714L257.5,44.717l1.838,7.652Z"/>
      <path id="Path_86" data-name="Path 86" d="M189.939,58.447h5.576l6.3-8.918Zm6.043.887h-8.707l18.54-13.926Z"/>
      <path id="Path_87" data-name="Path 87" d="M190.443,58.279h4.985l5.63-7.974Zm5.159.336h-6.167l13.132-9.863Zm-7.823.551H195.9l9.166-12.981Zm8.29.336h-9.3l19.8-14.87Z"/>
      <path id="Path_88" data-name="Path 88" d="M188.518,59.334h-2.1l-9.833-13.926L191.09,56.3l-.542.707-9.961-7.482,6.3,8.918h1.634Z"/>
      <path id="Path_89" data-name="Path 89" d="M186.5,59.166h1.846v-.551H186.8l-6.964-9.863,10.683,8.024.337-.439L177.339,46.185Zm2.182.336H186.33l-10.5-14.87,15.5,11.64-.746.973-9.239-6.94,5.63,7.974h1.715Z"/>
      <path id="Path_90" data-name="Path 90" d="M192.9,54.6l-2.36-11.424-1.8,11.4-.885-.136,2.56-16.271,3.358,16.25Z"/>
      <path id="Path_91" data-name="Path 91" d="M190.515,42.241,193.028,54.4l.549-.111-3.137-15.18-2.39,15.192.553.085Zm2.252,12.56L190.56,44.118l-1.677,10.656-1.218-.187L190.4,37.236l3.578,17.321Z"/>
      <path id="Path_92" data-name="Path 92" d="M196.995,52.449l-.872-.2,1.995-8.306-5.188,7.108-.726-.52L200.033,39.8Z"/>
      <path id="Path_93" data-name="Path 93" d="M196.326,52.119l.544.128,2.8-11.669-7.234,9.91.453.324,5.586-7.652Zm.793.532-1.2-.282,1.838-7.652-4.791,6.562-1-.714.1-.138,8.326-11.4Z"/>
      <path id="Path_94" data-name="Path 94" d="M184.524,52.449,181.486,39.8l7.829,10.726-.726.52L183.4,43.938l1.995,8.306Z"/>
      <path id="Path_95" data-name="Path 95" d="M181.846,40.578l2.8,11.669.545-.128-2.153-8.959,5.586,7.652.453-.324ZM184.4,52.651l-3.274-13.629,8.425,11.543-1,.714-4.791-6.562,1.838,7.652Z"/>
      <path id="Path_96" data-name="Path 96" d="M426.321,23.643c-9.3,0-16.873,8.9-16.873,19.834s7.57,19.835,16.873,19.835,16.872-8.9,16.872-19.835-7.569-19.834-16.872-19.834m0,41.686c-10.416,0-18.89-9.8-18.89-21.852s8.474-21.851,18.89-21.851,18.889,9.8,18.889,21.851-8.473,21.852-18.889,21.852"/>
      <path id="Path_97" data-name="Path 97" d="M443.221,44.681c-5.953-8.645-14.86-14.992-25.756-18.355a2.747,2.747,0,0,1-.908-.358l.606-.807.422-.913c.079.03.24.078.475.15a50.5,50.5,0,0,1,26.822,19.139Z"/>
      <path id="Path_98" data-name="Path 98" d="M439.975,56.055c-7.473-10.71-15.106-15.886-20.192-18.342a25.735,25.735,0,0,0-9.323-2.792l.049-2.016c.654.015,16.2.618,31.121,22Z"/>
      <path id="Path_99" data-name="Path 99" d="M432.45,63.216c-8.531-14.188-23.328-18.092-23.477-18.13l.5-1.954a43.942,43.942,0,0,1,24.707,19.045Z"/>
      <path id="Path_100" data-name="Path 100" d="M410.053,44.681l-1.661-1.144a50.471,50.471,0,0,1,26.2-19.138c.222-.07.375-.118.45-.148l.287.719.749,1a2.69,2.69,0,0,1-.872.353,48.447,48.447,0,0,0-25.148,18.361"/>
      <path id="Path_101" data-name="Path 101" d="M413.3,56.055,411.643,54.9c14.919-21.378,30.467-21.981,31.121-22l.05,2.016c-.151,0-15.23.662-29.516,21.134"/>
      <path id="Path_102" data-name="Path 102" d="M420.824,63.216,419.1,62.177A43.942,43.942,0,0,1,443.8,43.132l.5,1.954c-.148.038-14.964,3.971-23.477,18.13"/>
      <path id="Path_103" data-name="Path 103" d="M388.944,53.506a9.317,9.317,0,0,0-9.076,7.2h0a9.341,9.341,0,1,0,12.785-6.439l-.8-.343L405.444,2.777l-1.563-.366L390.287,53.566l-.819-.046c-.175-.009-.351-.014-.524-.014m.019,20.691a11.354,11.354,0,0,1-.211-22.707L402.435,0l5.492,1.288-13.686,51.5A11.354,11.354,0,0,1,388.963,74.2"/>
      <rect id="Rectangle_17" data-name="Rectangle 17" width="2.017" height="3.623" transform="translate(390.403 48.763) rotate(-76.789)"/>
      <path id="Path_104" data-name="Path 104" d="M394.335,67.993a8.051,8.051,0,0,1-3.081,1.259,9.016,9.016,0,0,1-3.4.033,7.2,7.2,0,0,1-3.143-1.394,6.506,6.506,0,0,1-2.064-2.639,16.157,16.157,0,0,0,2.628,1.754,10.084,10.084,0,0,0,2.831.958,15.652,15.652,0,0,0,3.035.249c1.038-.019,2.092-.1,3.194-.22"/>
      <path id="Path_105" data-name="Path 105" d="M592.625,18.926c.509.263,1.029.512,1.529.792a17.064,17.064,0,0,1,4.674,3.781,32.157,32.157,0,0,1,2.458,3.209,33.309,33.309,0,0,1,1.837,3.316,30.884,30.884,0,0,1,2.012,5.544,3.792,3.792,0,0,0,1.191-1.727,8.734,8.734,0,0,0-.109-5.958.656.656,0,0,1-.045-.362c.28.245.573.475.836.737a32.739,32.739,0,0,1,5.555,7.423,24.434,24.434,0,0,1,2.876,8.111,16.692,16.692,0,0,1-1.147,9.4,18.939,18.939,0,0,1-3.4,5.136,30.3,30.3,0,0,1-7.231,5.668,2.7,2.7,0,0,1-.423.219A20.533,20.533,0,0,0,604.464,49.8a21.222,21.222,0,0,0-8.057-12.085,17.135,17.135,0,0,1-3.659,12.427,9.417,9.417,0,0,0-1.245-6.477,1.107,1.107,0,0,0-.1.208,22.156,22.156,0,0,1-3.283,7.36,16.343,16.343,0,0,0-1.79,3.341,9.955,9.955,0,0,0-.412,5.593,16.42,16.42,0,0,0,1.207,3.633.9.9,0,0,1,.094.445c-.674-.407-1.374-.78-2.018-1.229-1.237-.861-2.484-1.715-3.651-2.663a15.189,15.189,0,0,1-3.99-4.767,12.094,12.094,0,0,1-1.217-6.848,18.923,18.923,0,0,1,1.908-6.528q1.386-2.886,2.7-5.808a12.415,12.415,0,0,0,1.017-3.908c.005-.054.016-.108.038-.249a14.843,14.843,0,0,1,1.8,7.331l.1.018c.251-.31.508-.616.753-.93a52.474,52.474,0,0,0,4.711-6.984,26.228,26.228,0,0,0,2.927-7.641,13.615,13.615,0,0,0,.2-4.788,2.718,2.718,0,0,1-.011-.326Z"/>
      <rect id="Rectangle_18" data-name="Rectangle 18" width="52.432" height="2.938" transform="translate(749.676 25.151)"/>
      <path id="Path_106" data-name="Path 106" d="M776.454,49.918c-1.78,2.88-4.245,7.453-4.245,10.1,0,3.66,1.944,6.753,4.245,6.753s4.245-3.093,4.245-6.753c0-2.646-2.465-7.219-4.245-10.1m0,19.79c-4.028,0-7.183-4.257-7.183-9.691,0-4.86,5.363-12.747,5.975-13.63l1.208-1.745,1.208,1.745c.612.883,5.975,8.77,5.975,13.63,0,5.434-3.155,9.691-7.183,9.691"/>
      <path id="Path_107" data-name="Path 107" d="M776.181,40.288l-1.265-2.361c-5.043-9.414-25.06-9.836-25.262-9.839l.046-2.937c.84.012,19.48.415,26.585,9.518,2.778-3.226,10.2-9.519,25.824-9.519v2.939c-18.862,0-24.561,9.765-24.617,9.863Z"/>
      <path id="Path_108" data-name="Path 108" d="M779.057,63.6c-.235.715-.77,1.181-1.2,1.042s-.579-.833-.344-1.548.771-1.182,1.2-1.042.579.833.344,1.548"/>
      <rect id="Rectangle_19" data-name="Rectangle 19" width="44.326" height="2.938" transform="translate(17.155 193.291)"/>
      <rect id="Rectangle_20" data-name="Rectangle 20" width="44.326" height="2.938" transform="translate(17.155 245.623)"/>
      <path id="Path_109" data-name="Path 109" d="M56.571,247.083l-.085,0a1.471,1.471,0,0,1-1.384-1.547c.021-.424.359-9.985-10.187-16.945a8.725,8.725,0,0,1-4.271-7.466c0-.045,0-.091.006-.136s0-.083,0-.125-.006-.089-.006-.134a8.724,8.724,0,0,1,4.271-7.465C55.54,206.251,55.108,196.42,55.1,196.322a1.469,1.469,0,0,1,2.933-.167c.027.471.519,11.627-11.5,19.561a5.892,5.892,0,0,0-2.949,4.907,1.2,1.2,0,0,1,0,.17c0,.065,0,.312,0,.312,0,.042,0,.085-.005.127a5.894,5.894,0,0,0,2.949,4.9c12.022,7.933,11.53,19.089,11.5,19.56a1.469,1.469,0,0,1-1.465,1.386"/>
      <path id="Path_110" data-name="Path 110" d="M23.665,247.083A1.469,1.469,0,0,1,22.2,245.7c-.027-.471-.519-11.627,11.5-19.56a5.892,5.892,0,0,0,2.949-4.9,1.382,1.382,0,0,1,0-.182c0-.048,0-.2,0-.258s0-.106,0-.158a5.889,5.889,0,0,0-2.949-4.919c-12.022-7.934-11.53-19.09-11.5-19.561a1.469,1.469,0,0,1,2.933.163c-.02.424-.357,9.985,10.188,16.945a8.72,8.72,0,0,1,4.271,7.466,1.122,1.122,0,0,1,0,.13v.136a1.113,1.113,0,0,1,0,.129,8.72,8.72,0,0,1-4.271,7.465C24.7,235.6,25.128,245.432,25.133,245.531a1.469,1.469,0,0,1-1.383,1.55l-.085,0"/>
      <path id="Path_111" data-name="Path 111" d="M30.292,206.509H49.735s-2.991,5.539-9.354,5.539c-7.855,0-10.089-5.539-10.089-5.539"/>
      <path id="Path_112" data-name="Path 112" d="M51.939,244.356H28.823s2.1-6.259,11.2-6.259,11.911,6.259,11.911,6.259"/>
      <path id="Path_113" data-name="Path 113" d="M40.106,230.567c0,5.05-8.572,10.2-8.572,10.2H48.823s-8.717-5.24-8.717-10.2"/>
      <path id="Path_114" data-name="Path 114" d="M182.639,244.021h28.775V229.936c0-3.133-3.675-6.033-9.145-7.216l-.869-.189V197.6c0-.774-1.7-1.9-4.374-1.9s-4.373,1.125-4.373,1.9v24.926l-.868.189c-5.47,1.183-9.146,4.083-9.146,7.216Zm30.979,2.2H180.436V229.936c0-4.072,3.9-7.611,10.013-9.166V197.6c0-2.339,2.828-4.1,6.577-4.1s6.578,1.764,6.578,4.1V220.77c6.114,1.555,10.014,5.094,10.014,9.166Z"/>
      <path id="Path_115" data-name="Path 115" d="M192.653,220.541H201.4V218.7h-8.747Zm10.951,2.2H190.449v-6.25H203.6Z"/>
      <rect id="Rectangle_21" data-name="Rectangle 21" width="35.664" height="2.204" transform="translate(179.195 228.07)"/>
      <rect id="Rectangle_22" data-name="Rectangle 22" width="16.917" height="2.204" transform="translate(188.568 197.027)"/>
      <path id="Path_116" data-name="Path 116" d="M197.027,234.722a2.386,2.386,0,1,0,2.386,2.386,2.389,2.389,0,0,0-2.386-2.386m0,6.976a4.59,4.59,0,1,1,4.59-4.59,4.6,4.6,0,0,1-4.59,4.59"/>
      <path id="Path_117" data-name="Path 117" d="M182.639,250.8h1.378v-4.575h-1.378Zm3.582,2.2h-5.786v-8.982h5.786Z"/>
      <path id="Path_118" data-name="Path 118" d="M210.036,250.8h1.378v-4.575h-1.378Zm3.582,2.2h-5.786v-8.982h5.786Z"/>
      <path id="Path_119" data-name="Path 119" d="M196.337,250.8h1.378v-4.575h-1.378Zm3.582,2.2h-5.786v-8.982h5.786Z"/>
      <path id="Path_120" data-name="Path 120" d="M220.537,252.374l-5.892-12.427h-2.129v-2.2h3.524l6.488,13.687Z"/>
      <path id="Path_121" data-name="Path 121" d="M236.615,244.021H265.39V229.936c0-3.133-3.675-6.033-9.145-7.217l-.869-.188V197.6c0-.774-1.7-1.9-4.373-1.9s-4.374,1.125-4.374,1.9v24.926l-.869.189c-5.47,1.183-9.145,4.083-9.145,7.216Zm30.979,2.2H234.411V229.936c0-4.072,3.9-7.611,10.014-9.166V197.6c0-2.339,2.828-4.1,6.578-4.1s6.577,1.764,6.577,4.1V220.77c6.114,1.555,10.014,5.094,10.014,9.166Z"/>
      <path id="Path_122" data-name="Path 122" d="M246.629,220.541h8.748V218.7h-8.748Zm10.951,2.2H244.425v-6.25H257.58Z"/>
      <rect id="Rectangle_23" data-name="Rectangle 23" width="35.664" height="2.204" transform="translate(233.17 228.07)"/>
      <rect id="Rectangle_24" data-name="Rectangle 24" width="16.917" height="2.204" transform="translate(242.543 197.027)"/>
      <path id="Path_123" data-name="Path 123" d="M251,234.722a2.386,2.386,0,1,0,2.386,2.386A2.389,2.389,0,0,0,251,234.722m0,6.976a4.59,4.59,0,1,1,4.59-4.59A4.6,4.6,0,0,1,251,241.7"/>
      <path id="Path_124" data-name="Path 124" d="M236.615,250.8h1.378v-4.575h-1.378ZM240.2,253h-5.786v-8.982H240.2Z"/>
      <path id="Path_125" data-name="Path 125" d="M264.011,250.8h1.379v-4.575h-1.379Zm3.583,2.2h-5.786v-8.982h5.786Z"/>
      <path id="Path_126" data-name="Path 126" d="M250.313,250.8h1.378v-4.575h-1.378ZM253.9,253h-5.786v-8.982H253.9Z"/>
      <path id="Path_127" data-name="Path 127" d="M274.513,252.374l-5.891-12.427h-2.129v-2.2h3.523L276.5,251.43Z"/>
      <path id="Path_128" data-name="Path 128" d="M226.19,207.968a4.124,4.124,0,0,1-3.133-1.242,5.255,5.255,0,0,1-1.22-3.667l0-25.344a2.5,2.5,0,0,0-.565-1.655,2.2,2.2,0,0,0-1.645-.554c-1.912,0-2.012,2.222-2.017,2.475v11.38h-19.48V194.6h-2.2v-7.446H215.4v-9.2c.033-1.626.957-4.657,4.221-4.657a4.291,4.291,0,0,1,3.252,1.25,4.627,4.627,0,0,1,1.16,3.22l0,25.358a3.133,3.133,0,0,0,.632,2.1,1.979,1.979,0,0,0,1.519.539,2.012,2.012,0,0,0,1.568-.545,2.66,2.66,0,0,0,.526-1.74l0-.1V186.94h23.349V194.6h-2.2v-5.46H230.484v14.2a4.773,4.773,0,0,1-1.1,3.364,4.135,4.135,0,0,1-3.192,1.26"/>
      <path id="Path_129" data-name="Path 129" d="M780.058,132.109v13H38.391v11" fill="none" stroke="#577e8c" stroke-width="2"/>
      <circle id="Ellipse_1" data-name="Ellipse 1" cx="2" cy="2" r="2" transform="translate(36.391 156.234)" fill="none" stroke="#577e8c" stroke-width="2"/>
      <circle id="Ellipse_2" data-name="Ellipse 2" cx="2" cy="2" r="2" transform="translate(778.183 127.984)" fill="none" stroke="#577e8c" stroke-width="2"/>
      <path id="Path_130" data-name="Path 130" d="M398,204.492c-2.787,5.427-7.59,15.616-7.59,19.623,0,5.2,3.4,9.434,7.59,9.434s7.591-4.232,7.591-9.434c0-4.009-4.8-14.2-7.591-19.623m0,31.363c-5.457,0-9.9-5.267-9.9-11.74,0-6.068,8.518-21.977,8.88-22.652L398,199.575l1.016,1.888c.362.675,8.88,16.584,8.88,22.652,0,6.473-4.439,11.74-9.9,11.74"/>
      <path id="Path_131" data-name="Path 131" d="M401.988,228.732c-.36.921-1.179,1.521-1.83,1.341s-.886-1.072-.526-1.993,1.179-1.521,1.829-1.341.887,1.072.527,1.993"/>
      <path id="Path_132" data-name="Path 132" d="M435.953,224.115c0,5.847-3.914,10.587-8.743,10.587s-8.744-4.74-8.744-10.587,8.744-22.106,8.744-22.106,8.743,16.259,8.743,22.106"/>
      <path id="Path_133" data-name="Path 133" d="M427.21,204.492c-2.787,5.427-7.59,15.616-7.59,19.623,0,5.2,3.4,9.434,7.59,9.434s7.591-4.232,7.591-9.434c0-4.009-4.8-14.2-7.591-19.623m0,31.363c-5.457,0-9.9-5.267-9.9-11.74,0-6.068,8.518-21.977,8.88-22.652l1.016-1.888,1.016,1.888c.362.675,8.88,16.584,8.88,22.652,0,6.473-4.439,11.74-9.9,11.74"/>
      <path id="Path_134" data-name="Path 134" d="M431.193,228.732c-.36.921-1.179,1.521-1.83,1.341s-.886-1.072-.526-1.993,1.179-1.521,1.829-1.341.887,1.072.527,1.993" fill="#fff"/>
      <circle id="Ellipse_3" data-name="Ellipse 3" cx="2" cy="2" r="2" transform="translate(136.883 47.429)" fill="none" stroke="#577e8c" stroke-width="2"/>
      <circle id="Ellipse_18" data-name="Ellipse 18" cx="2" cy="2" r="2" transform="translate(136.883 224.071)" fill="none" stroke="#577e8c" stroke-width="2"/>
      <circle id="Ellipse_4" data-name="Ellipse 4" cx="2" cy="2" r="2" transform="translate(100.632 47.429)" fill="none" stroke="#577e8c" stroke-width="2"/>
      <circle id="Ellipse_17" data-name="Ellipse 17" cx="2" cy="2" r="2" transform="translate(100.632 224.071)" fill="none" stroke="#577e8c" stroke-width="2"/>
      <line id="Line_1" data-name="Line 1" x1="31.816" transform="translate(104.942 49.429)" fill="none" stroke="#577e8c" stroke-width="2"/>
      <line id="Line_8" data-name="Line 8" x1="31.816" transform="translate(104.942 226.071)" fill="none" stroke="#577e8c" stroke-width="2"/>
      <circle id="Ellipse_5" data-name="Ellipse 5" cx="2" cy="2" r="2" transform="translate(353.122 47.429)" fill="none" stroke="#577e8c" stroke-width="2"/>
      <circle id="Ellipse_6" data-name="Ellipse 6" cx="2" cy="2" r="2" transform="translate(316.872 47.429)" fill="none" stroke="#577e8c" stroke-width="2"/>
      <line id="Line_2" data-name="Line 2" x1="31.816" transform="translate(321.181 49.429)" fill="none" stroke="#577e8c" stroke-width="2"/>
      <circle id="Ellipse_7" data-name="Ellipse 7" cx="2" cy="2" r="2" transform="translate(337.788 224.097)" fill="none" stroke="#577e8c" stroke-width="2"/>
      <circle id="Ellipse_8" data-name="Ellipse 8" cx="2" cy="2" r="2" transform="translate(301.538 224.097)" fill="none" stroke="#577e8c" stroke-width="2"/>
      <line id="Line_3" data-name="Line 3" x1="31.816" transform="translate(305.847 226.097)" fill="none" stroke="#577e8c" stroke-width="2"/>
      <circle id="Ellipse_9" data-name="Ellipse 9" cx="2" cy="2" r="2" transform="translate(520.872 224.097)" fill="none" stroke="#577e8c" stroke-width="2"/>
      <circle id="Ellipse_10" data-name="Ellipse 10" cx="2" cy="2" r="2" transform="translate(484.622 224.097)" fill="none" stroke="#577e8c" stroke-width="2"/>
      <line id="Line_4" data-name="Line 4" x1="31.816" transform="translate(488.931 226.097)" fill="none" stroke="#577e8c" stroke-width="2"/>
      <circle id="Ellipse_11" data-name="Ellipse 11" cx="2" cy="2" r="2" transform="translate(697.288 224.097)" fill="none" stroke="#577e8c" stroke-width="2"/>
      <circle id="Ellipse_12" data-name="Ellipse 12" cx="2" cy="2" r="2" transform="translate(661.038 224.097)" fill="none" stroke="#577e8c" stroke-width="2"/>
      <line id="Line_5" data-name="Line 5" x1="31.816" transform="translate(665.347 226.097)" fill="none" stroke="#577e8c" stroke-width="2"/>
      <circle id="Ellipse_13" data-name="Ellipse 13" cx="2" cy="2" r="2" transform="translate(522.255 47.429)" fill="none" stroke="#577e8c" stroke-width="2"/>
      <circle id="Ellipse_14" data-name="Ellipse 14" cx="2" cy="2" r="2" transform="translate(486.005 47.429)" fill="none" stroke="#577e8c" stroke-width="2"/>
      <line id="Line_6" data-name="Line 6" x1="31.816" transform="translate(490.314 49.429)" fill="none" stroke="#577e8c" stroke-width="2"/>
      <circle id="Ellipse_15" data-name="Ellipse 15" cx="2" cy="2" r="2" transform="translate(697.288 47.429)" fill="none" stroke="#577e8c" stroke-width="2"/>
      <circle id="Ellipse_16" data-name="Ellipse 16" cx="2" cy="2" r="2" transform="translate(661.038 47.429)" fill="none" stroke="#577e8c" stroke-width="2"/>
      <line id="Line_7" data-name="Line 7" x1="31.816" transform="translate(665.347 49.429)" fill="none" stroke="#577e8c" stroke-width="2"/>
      <rect id="Rectangle_25" data-name="Rectangle 25" width="24.679" height="2.279" transform="translate(764.81 235.094)"/>
      <rect id="Rectangle_26" data-name="Rectangle 26" width="24.679" height="2.279" transform="translate(764.81 242.66)"/>
      <path id="Path_135" data-name="Path 135" d="M777.15,213.707a1.994,1.994,0,1,0,1.994,1.995,2,2,0,0,0-1.994-1.995m0,6.268a4.274,4.274,0,1,1,4.273-4.273,4.278,4.278,0,0,1-4.273,4.273"/>
      <path id="Path_136" data-name="Path 136" d="M765.38,251.955h23.54V245.7l-.538-1.729v-7.912l.538-1.729V210.253h-2.949a3.283,3.283,0,0,1-2.43-.974,3.443,3.443,0,0,1-.832-1.566l-.184-.031.058-1.028,1.125-17.746c-.532-.438-2.84-1.174-6.558-1.174s-6.025.736-6.558,1.174l1.189,18.758-.159.029a3.323,3.323,0,0,1-.791,1.566,3.267,3.267,0,0,1-2.5.992h-2.95v24.059l.6,1.729v7.951l-.6,1.729Zm25.819,2.279H763.1v-8.9l.6-1.729v-7.181l-.6-1.729V207.974h5.229a1.11,1.11,0,0,0,.825-.257,1.426,1.426,0,0,0,.281-.918l-.023-.459-1.113-17.6c0-3.2,7.944-3.288,8.85-3.288s8.85.092,8.85,3.288l0,.072-1.131,17.952a1.051,1.051,0,0,0,1.119,1.207H791.2v26.7l-.538,1.729v7.22l.538,1.728Z"/>
      <path id="Path_137" data-name="Path 137" d="M783.508,208.077a29.77,29.77,0,0,0-12.663-.012l-.59-2.2A31.51,31.51,0,0,1,784,205.851Z"/>
      <rect id="Rectangle_27" data-name="Rectangle 27" width="25.217" height="7.566" transform="translate(764.842 236.233)"/>
      <path id="Path_138" data-name="Path 138" d="M583.124,217.855c2.292.705,7.956,1.557,16.911,1.557s14.619-.852,16.911-1.557c-2.292-.706-7.956-1.558-16.911-1.558s-14.619.852-16.911,1.558m16.911,4.056a98.551,98.551,0,0,1-13.635-.834c-4.76-.7-6.615-1.6-6.615-3.222s1.855-2.52,6.615-3.221a111.734,111.734,0,0,1,27.269,0c4.761.7,6.616,1.6,6.616,3.221s-1.855,2.519-6.616,3.222a98.526,98.526,0,0,1-13.634.834"/>
      <path id="Path_139" data-name="Path 139" d="M588.222,250.176v0Zm23.627,0v0Zm-11.814,4.058a46.993,46.993,0,0,1-9.455-.849c-2-.43-4.638-1.214-4.772-3.06l-6-32.233a1.248,1.248,0,0,1,.959-1.463,1.211,1.211,0,0,1,1.416.991l6.015,32.306c.73.649,4.837,1.809,11.838,1.809s11.108-1.16,11.838-1.809l6.015-32.306a1.212,1.212,0,0,1,1.416-.991,1.248,1.248,0,0,1,.959,1.463l-6,32.233c-.134,1.846-2.774,2.63-4.772,3.06a46.993,46.993,0,0,1-9.455.849"/>
      <path id="Path_140" data-name="Path 140" d="M605.5,202.37c0,3.776-2.447,6.838-5.466,6.838s-5.466-3.062-5.466-6.838,5.466-14.277,5.466-14.277,5.466,10.5,5.466,14.277"/>
      <path id="Path_141" data-name="Path 141" d="M600.035,190.81c-1.744,3.591-4.257,9.264-4.257,11.56,0,3.081,1.909,5.588,4.257,5.588s4.257-2.507,4.257-5.588c0-2.3-2.513-7.97-4.257-11.56m0,19.647c-3.681,0-6.676-3.628-6.676-8.087,0-3.977,5.037-13.766,5.611-14.869l1.065-2.046L601.1,187.5c.574,1.1,5.61,10.892,5.61,14.869,0,4.459-2.994,8.087-6.675,8.087"/>
      <path id="Path_142" data-name="Path 142" d="M602.525,205.352c-.225.6-.737.982-1.144.866s-.554-.692-.329-1.287.737-.983,1.144-.866.554.692.329,1.287" fill="#fff"/>
      <path id="Path_143" data-name="Path 143" d="M590.307,229.412a42.041,42.041,0,0,0,19.456,0,42,42,0,0,0-19.456,0m9.728,3.64c-3.853,0-12.813-.355-12.813-3.64s8.96-3.641,12.813-3.641,12.813.355,12.813,3.641-8.96,3.64-12.813,3.64"/>
      <path id="Path_144" data-name="Path 144" d="M600.035,249.378c-3.332,0-8.867-.366-9.136-2.775l-3.648-16.862a1.251,1.251,0,0,1,.916-1.492,1.209,1.209,0,0,1,1.444.947l3.627,16.764c.664.361,3.042.919,6.8.919s6.133-.558,6.8-.919l3.628-16.764a1.212,1.212,0,0,1,1.444-.947,1.25,1.25,0,0,1,.916,1.492L609.17,246.6c-.268,2.409-5.8,2.775-9.135,2.775"/>
    </g>
  </g>
</svg>
