<svg xmlns="http://www.w3.org/2000/svg" width="957.598" height="194.744" viewBox="0 0 957.598 194.744">
  <g id="Group_22" data-name="Group 22" transform="translate(-241.201 -1462.474)">
    <text id="Rescatamos_la_esencia_y_la_tradición_de_elaborar_un_tequila_100_de_agave_azul." data-name="Rescatamos la esencia y la tradición de elaborar
un tequila 100% de agave azul." transform="translate(720 1548)" fill="#577e8c" font-size="33" font-family="Cinzel-Regular, Cinzel"><tspan x="-442.827" y="0">Rescatamos la esencia y la tradición de elaborar</tspan><tspan font-family="Cinzel-Bold, Cinzel" font-weight="700"><tspan x="-272.25" y="44">un tequila 100% de agave azul.</tspan></tspan></text>
    <g id="Group_21" data-name="Group 21" transform="translate(1198.799 1462.474) rotate(90)">
      <path id="Path_25" data-name="Path 25" d="M173.343,53.724h0L81.584,52.507l91.759-1.217a1.223,1.223,0,0,1,0,2.434" transform="translate(-81.584 -51.289)" fill="#577e8c"/>
      <path id="Path_26" data-name="Path 26" d="M196.038,51.289h0L287.8,52.506l-91.759,1.217a1.223,1.223,0,0,1,0-2.434" transform="translate(-93.053 -51.289)" fill="#577e8c"/>
    </g>
    <g id="Group_25" data-name="Group 25" transform="translate(243.636 1462.474) rotate(90)">
      <path id="Path_25-2" data-name="Path 25" d="M173.343,53.724h0L81.584,52.507l91.759-1.217a1.223,1.223,0,0,1,0,2.434" transform="translate(-81.584 -51.289)" fill="#577e8c"/>
      <path id="Path_26-2" data-name="Path 26" d="M196.038,51.289h0L287.8,52.506l-91.759,1.217a1.223,1.223,0,0,1,0-2.434" transform="translate(-93.053 -51.289)" fill="#577e8c"/>
    </g>
  </g>
</svg>
